<?xml version="1.0" encoding="UTF-8"?><svg id="Layer_1" xmlns="http://www.w3.org/2000/svg" viewBox="0 0 279.04 73.33"><defs><style>.cls-1{fill:#fff;}</style></defs><path class="cls-1" d="M4.96,73.33L0,56.48c1.84-2.34,4.19-3.86,7.04-4.56,2.86-.71,5.88-.86,9.04-.48,3.18.38,6.24,1.03,9.19,1.96,2.96.92,5.46,1.82,7.5,2.71,3.17,1.39,5.82,2.44,7.98,3.15,2.17.7,4.17,1.04,6.02,1.04,2.22,0,4.07-.51,5.56-1.52,1.5-1.03,2.59-2.32,3.29-3.88.69-1.55.94-3.19.75-4.9-.18-1.71-.88-3.29-2.08-4.75-1.21-1.47-2.99-2.55-5.33-3.25-2.54-.82-5.35-1.07-8.44-.75-3.07.31-6.05.86-8.94,1.67-2.89.79-5.39,1.56-7.48,2.31-4.83,1.78-9.08,2.27-12.73,1.48-3.66-.79-6.47-2.77-8.44-5.94-1.96-3.18-2.94-7.44-2.94-12.77,0-3.23.61-6.42,1.85-9.56,1.23-3.15,2.96-5.98,5.19-8.48,2.22-2.51,4.84-4.53,7.85-6.06,3.03-1.53,6.34-2.29,9.96-2.29,2.42,0,4.92.22,7.52.67,2.61.45,5.2.89,7.77,1.33,2.57.45,5,.67,7.29.67,2.22.07,4.27-.21,6.15-.83,1.88-.64,3.44-1.78,4.71-3.44l4.96,16.96c-1.85,2.35-4.2,3.85-7.06,4.52-2.85.67-5.86.87-9.04.6-1.97-.18-4.07-.68-6.29-1.5-2.22-.83-4.51-1.69-6.85-2.58-2.35-.89-4.67-1.54-6.96-1.96-2.28-.42-4.5-.3-6.67.33-2.41.7-4.6,2.08-6.6,4.15-2,2.07-3.56,4.41-4.67,7-1.11,2.6-1.6,5.1-1.48,7.52.13,1.78.85,2.86,2.19,3.25,1.33.38,3.11.12,5.33-.77,2.92-1.14,6.14-2.53,9.67-4.19,3.53-1.65,7.13-3.17,10.81-4.56,3.68-1.4,7.17-2.23,10.48-2.48,3.17-.32,5.84.11,8.04,1.29,2.19,1.17,3.96,2.83,5.29,5,1.33,2.16,2.3,4.58,2.9,7.27.61,2.7.92,5.41.92,8.15-.13,8.52-2.54,14.61-7.25,18.29-4.7,3.68-11.27,5.52-19.71,5.52-2.42,0-4.75-.22-7-.67-2.25-.44-4.49-.9-6.71-1.38-2.22-.48-4.48-.73-6.77-.73-2.16,0-4.19.31-6.1.92-1.91.6-3.49,1.72-4.75,3.38Z"/><path class="cls-1" d="M126.58,1.6c.51,2.93.82,6.08.92,9.44.09,3.36-.08,6.82-.52,10.38-.64,5.03-1.45,10.05-2.44,15.06-.99,5.02-1.77,10.03-2.33,15.04-.45,3.75-.37,7.5.23,11.25.61,3.74,1.99,6.75,4.15,9.04h-21.23c-1.02-1.78-1.54-3.63-1.58-5.56-.03-1.94.19-3.9.67-5.85.48-1.97,1.01-3.96,1.58-5.96.57-2,.92-3.96,1.04-5.88.25-3.61-.24-6.46-1.48-8.56-1.24-2.09-2.91-3.48-5-4.15-2.1-.67-4.35-.69-6.77-.08-2.41.6-4.66,1.79-6.75,3.56-2.1,1.78-3.75,4.06-4.96,6.85-1.14,2.67-1.66,5.59-1.56,8.77.09,3.17.73,6.23,1.9,9.19,1.18,2.96,2.84,5.52,5,7.67h-22c-.45-2.98-.72-6.16-.81-9.52-.09-3.38.07-6.86.52-10.48.64-4.96,1.4-9.88,2.29-14.77.89-4.89,1.65-9.8,2.29-14.75.5-3.82.46-7.63-.1-11.44-.57-3.8-1.97-6.89-4.19-9.25h20c.51,2.93.82,6.08.92,9.44.09,3.36-.08,6.82-.52,10.38-.14,1.03-.29,2.05-.44,3.06-.16,1.02-.33,2.06-.52,3.15,2.67-1.21,5.53-1.76,8.6-1.67,3.08.08,6.03.72,8.85,1.9,2.83,1.18,5.14,2.89,6.92,5.1.64-3.55,1.07-7.27,1.29-11.15.22-3.88-.06-7.59-.85-11.15-.79-3.55-2.43-6.57-4.92-9.06h21.81Z"/><path class="cls-1" d="M149.64,1.6c.51,2.93.82,6.08.92,9.44.09,3.36-.08,6.82-.52,10.38-.64,5.03-1.45,10.05-2.44,15.06-.99,5.02-1.77,10.03-2.33,15.04-.45,3.75-.37,7.5.23,11.25.61,3.74,1.99,6.75,4.15,9.04h-20c-.45-2.98-.72-6.16-.81-9.52-.09-3.38.07-6.86.52-10.48.64-4.96,1.4-9.88,2.29-14.77.89-4.89,1.65-9.8,2.29-14.75.5-3.82.46-7.63-.1-11.44-.57-3.8-1.97-6.89-4.19-9.25h20Z"/><path class="cls-1" d="M214.42,1.6c.82,4.83,1.05,9.92.71,15.25-.35,5.33-1.27,10.62-2.77,15.85-1.49,5.24-3.54,10.21-6.15,14.92-2.6,4.7-5.71,8.85-9.33,12.48-3.61,3.61-7.72,6.47-12.33,8.56-4.6,2.1-9.69,3.15-15.27,3.15-4.45,0-8.2-.95-11.25-2.85-3.04-1.9-4.92-4.82-5.63-8.77-.45-2.67-.48-5.79-.1-9.38.39-3.58.96-7.39,1.73-11.42.76-4.04,1.49-8.06,2.19-12.06.71-4,1.14-7.74,1.29-11.23.15-3.5-.18-6.52-1-9.06-.82-2.54-2.38-4.35-4.67-5.44h25.44c2.4,3.63,3.73,6.92,3.98,9.88.26,2.95-.21,5.72-1.42,8.33-1.21,2.6-2.86,5.22-4.96,7.85-2.08,2.64-4.31,5.45-6.67,8.42-3.61,4.58-5.97,8.48-7.08,11.69-1.11,3.2-1.31,5.75-.58,7.67.73,1.91,2.1,3.22,4.1,3.96,2,.72,4.36.86,7.08.42,2.73-.44,5.5-1.43,8.29-2.96,3.55-1.9,6.55-4.34,9-7.33,2.44-2.98,4.33-6.33,5.67-10.04,1.33-3.72,2.13-7.55,2.38-11.48.26-3.94.01-7.82-.75-11.63-.64-3.04-1.74-5.88-3.29-8.52-1.56-2.64-3.73-4.72-6.52-6.25h27.92Z"/><path class="cls-1" d="M234.72,46.19c.89,0,2.13-.23,3.71-.71,1.58-.47,3.36-1.01,5.33-1.6,1.97-.61,3.96-1.1,5.96-1.48,2-.39,3.84-.48,5.52-.29,1.68.18,3.03.85,4.04,2,.64-3.88,1.3-7.8,2-11.77.71-3.97,1.28-7.86,1.73-11.67-2.22,2.28-4.69,4.45-7.4,6.52-2.7,2.07-5.41,4.1-8.15,6.1-2.72,2-5.22,4.05-7.48,6.15-2.25,2.08-4.01,4.33-5.27,6.75ZM255.76,52.29c-1.33-1.08-3.16-1.6-5.48-1.56-2.32.03-4.72.45-7.19,1.27-2.47.82-4.65,1.93-6.52,3.33-1.88,1.41-3.04,2.93-3.48,4.56-.45,1.97-.2,4.1.75,6.4.96,2.28,2.14,4.12,3.54,5.52h-19.92c-.45-2.92-.77-6.09-.96-9.52-.18-3.43.04-6.8.67-10.1.64-3.3,1.94-6.19,3.92-8.67,1.9-2.42,4.23-4.71,7-6.9,2.76-2.19,5.61-4.32,8.56-6.38,2.96-2.07,5.71-4.11,8.25-6.15,2.54-2.04,4.54-4.05,6-6.02-2.42.77-5.14,1.5-8.15,2.21-3.02.7-5.89,1.24-8.63,1.63-2.72.38-4.91.5-6.56.38-2.03-.19-3.95-.69-5.77-1.48-1.81-.79-3.34-1.98-4.6-3.58L221.95.38c1.28,1.66,3.36,2.77,6.25,3.33,2.89.57,6.15.81,9.79.71,3.65-.09,7.38-.36,11.19-.81,3.82-.44,7.36-.86,10.63-1.27,3.28-.42,5.9-.66,7.88-.73,3.73-.05,6.46.82,8.17,2.63,1.72,1.81,2.73,4.22,3.02,7.25.29,3.02.21,6.4-.23,10.15-.64,4.95-1.44,9.93-2.4,14.96-.95,5.02-1.71,10.03-2.29,15.04-.5,3.81-.44,7.55.19,11.23.64,3.68,2.04,6.67,4.21,8.96h-19.92c-.5-1.46-.77-3.14-.81-5.04-.03-1.9,0-3.82.1-5.75.09-1.94.03-3.69-.19-5.25-.22-1.55-.81-2.71-1.77-3.48Z"/></svg>