<?xml version="1.0" encoding="UTF-8"?>
<svg id="Layer_1" xmlns="http://www.w3.org/2000/svg" version="1.1" viewBox="0 0 2500 2500">
  <!-- Generator: Adobe Illustrator 29.5.0, SVG Export Plug-In . SVG Version: 2.1.0 Build 137)  -->
  <defs>
    <style>
      .st0 {
        fill: #dd3e7b;
      }
    </style>
  </defs>
  <path class="st0" d="M0,1250c0-226.67,55.83-435.83,167.5-627.5,111.67-191.67,263.33-343.33,455-455C814.17,55.83,1023.34,0,1250,0s435.83,55.83,627.5,167.5c191.67,111.67,343.33,263.33,455,455,111.67,191.67,167.5,400.83,167.5,627.5s-55.83,435.83-167.5,627.5c-111.67,191.67-263.33,343.33-455,455-191.67,111.67-400.83,167.5-627.5,167.5s-435.83-55.83-627.5-167.5c-191.67-111.67-343.33-263.33-455-455C55.83,1685.83,0,1476.67,0,1250ZM207.5,1250c0,260,87.5,489.17,262.5,687.5,80-156.67,206.67-305.83,380-447.5,173.33-141.67,342.5-230.83,507.5-267.5-25-58.33-49.17-110.83-72.5-157.5-286.67,91.67-596.67,137.5-930,137.5-65,0-113.33-.83-145-2.5,0,6.67-.42,15-1.25,25-.83,10-1.25,18.33-1.25,25ZM240,992.5c36.67,3.33,90.83,5,162.5,5,278.33,0,542.5-37.5,792.5-112.5-126.67-225-265.83-412.5-417.5-562.5-131.67,66.67-244.58,159.17-338.75,277.5-94.17,118.33-160.42,249.17-198.75,392.5ZM612.5,2072.5c188.33,146.67,400.83,220,637.5,220,123.33,0,245.83-23.33,367.5-70-33.33-285-98.33-560.83-195-827.5-153.33,33.33-307.92,117.5-463.75,252.5-155.83,135-271.25,276.67-346.25,425ZM995,242.5c146.67,151.67,282.5,340.83,407.5,567.5,226.67-95,397.5-215.83,512.5-362.5-193.33-160-415-240-665-240-85,0-170,11.67-255,35ZM1492.5,987.5c25,53.33,53.33,120.83,85,202.5,123.33-11.67,257.5-17.5,402.5-17.5,103.33,0,205.83,2.5,307.5,7.5-13.33-226.67-95-428.33-245-605-108.33,161.67-291.67,299.17-550,412.5ZM1640,1365c85,246.67,142.5,500,172.5,760,131.67-85,239.17-194.17,322.5-327.5,83.33-133.33,133.33-277.5,150-432.5-121.67-8.33-232.5-12.5-332.5-12.5-91.67,0-195.83,4.17-312.5,12.5Z"/>
</svg>