<?xml version="1.0" encoding="UTF-8"?>
<svg id="Layer_1" xmlns="http://www.w3.org/2000/svg" version="1.1" xmlns:xlink="http://www.w3.org/1999/xlink" viewBox="0 0 500 500">
  <!-- Generator: Adobe Illustrator 29.5.0, SVG Export Plug-In . SVG Version: 2.1.0 Build 137)  -->
  <defs>
    <style>
      .st0 {
        fill: #263238;
      }

      .st1, .st2 {
        fill: #fff;
      }

      .st3 {
        fill: none;
      }

      .st4 {
        clip-path: url(#clippath-1);
      }

      .st5 {
        opacity: .24;
      }

      .st6 {
        fill: #0d6efd;
      }

      .st7 {
        fill: #ccc;
      }

      .st8 {
        fill: #e5e5e5;
      }

      .st8, .st2 {
        isolation: isolate;
        opacity: .65;
      }

      .st9 {
        clip-path: url(#clippath);
      }
    </style>
    <clipPath id="clippath">
      <path class="st3" d="M271.67,312.44c-1.79,6.68-1.79,13.72,0,20.4h42.6s-4.48-12.94,0-20.4h-42.6ZM272,312.94h41.42c-3.38,6.71-.67,16.72.16,19.4h-41.53c-1.62-6.36-1.64-13.03-.05-19.4Z"/>
    </clipPath>
    <clipPath id="clippath-1">
      <path class="st3" d="M272.33,357.11c-1.79,6.68-1.79,13.72,0,20.4h41.94s-4.48-12.94,0-20.4h-41.94ZM272.71,357.6h40.71c-3.38,6.71-.67,16.71.16,19.4h-40.86c-1.61-6.37-1.61-13.03,0-19.4Z"/>
    </clipPath>
  </defs>
  <g id="freepik--Books--inject-2">
    <path class="st0" d="M396.18,204.9h0c-.41,0-40.91-.73-42-.73s-4.55,0-6.15-1.59-5-6.37-5.12-6.58c-.08-.12-.11-.27-.08-.41l10.5-43.8c.06-.27.33-.43.6-.37.26.06.43.32.37.58,0,0,0,.01,0,.02l-10.43,43.58c.66.92,3.63,5,4.88,6.27s4.41,1.3,5.44,1.3,36.91.64,41.56.72l8-53.14c.04-.28.29-.47.57-.43.28.04.47.29.43.57h0l-8.05,53.58c-.04.26-.26.44-.52.43Z"/>
    <path class="st0" d="M362.59,144.14h0l-3.33-.06c-.28,0-.5-.23-.5-.51.02-.27.24-.48.51-.49l3.34.06c.28,0,.5.22.5.5s-.22.5-.5.5h-.02Z"/>
    <path class="st0" d="M345.5,196.93c-.28,0-.5-.22-.5-.5s.22-.5.5-.5l43.75-.14,9.23-51-31.81-.58c-.27,0-.49-.23-.49-.5.03-.27.24-.48.51-.5l32.39.59c.15,0,.29.07.38.19.09.11.13.26.11.4l-9.41,52c-.04.24-.25.41-.49.41l-44.17.15v-.02Z"/>
    <path class="st0" d="M394,202.36h0l-42.35-1.08c-.14-.01-.26-.07-.36-.17l-3.62-4c-.19-.2-.19-.51,0-.71.19-.19.5-.2.69,0,0,0,0,0,0,0l3.48,3.82,41.7,1.07,7.56-45.81-3.11-4.37c-.16-.22-.12-.52.09-.69,0,0,.01,0,.02-.01.22-.16.54-.11.7.12,0,0,0,0,0,0l3.32,4.59c.08.11.1.25.08.38l-7.66,46.44c-.04.26-.28.45-.55.42Z"/>
    <path class="st0" d="M355.44,199.09h6.13s-1,4.86-1.53,9.45-.77,10.48-.77,10.48l-3.57-6.65-4.35,5.63,4.09-18.91Z"/>
    <path class="st0" d="M97.09,209.19c-.2,0-.39-.12-.46-.31-.1-.26.02-.55.27-.66l25.89-10.43c.55-1.52,1.01-3.07,1.39-4.64.12-.7-.31-1.75-1.27-3.1-.37-.52-12.62-18.41-14.6-21.29l-29.8,15.1c-.24.13-.54.04-.66-.2,0,0,0,0,0-.01-.13-.24-.03-.55.21-.68,0,0,0,0,0,0l30.19-15.3c.22-.11.49-.04.64.16.15.21,14.45,21.1,14.83,21.64.73,1,1.67,2.53,1.45,3.84s-1.45,4.87-1.5,5c-.05.14-.15.25-.29.31l-26.1,10.51c-.06.03-.12.05-.19.06Z"/>
    <path class="st0" d="M90.88,209.44c-.16,0-.32-.08-.41-.22l-1.18-1.72c-.16-.23-.1-.54.13-.7.23-.16.54-.1.7.13l1.18,1.73c.15.23.09.53-.13.69-.09.06-.19.09-.29.09Z"/>
    <path class="st0" d="M88.26,205.61c-.16,0-.32-.08-.41-.22l-11.43-16.71c-.08-.12-.11-.27-.07-.41.04-.14.14-.26.27-.32l29.87-14c.22-.11.48-.04.62.16l16.07,22.43c.16.22.11.53-.11.7-.22.16-.54.11-.7-.12,0,0,0,0,0,0l-15.83-22.12-29,13.6,11.1,16.23c.15.23.09.54-.14.69-.07.05-.15.08-.24.09Z"/>
    <path class="st0" d="M122,195.88h-.1c-.27-.06-.44-.32-.39-.59l.68-3.08-14.39-21.43-25.8,12.63-1.07,3.16c-.09.26-.38.4-.64.31-.26-.09-.4-.37-.31-.63l1.14-3.36c.04-.13.13-.23.25-.29l26.42-12.91c.23-.11.5-.04.64.17l14.78,22c.08.11.11.25.08.38l-.72,3.29c-.07.25-.32.4-.57.35Z"/>
    <path class="st0" d="M120.53,190.78l-2.22-3.12s2.84-1.24,5.37-2.65,5.61-3.4,5.61-3.4l-2.09,4.23,4.43.17-11.1,4.77Z"/>
    <path class="st0" d="M112.68,286.23h-.06c-.16-.03-.3-.13-.38-.27l-18.3-35c-.05-.13-.05-.26,0-.39.04-.13.13-.23.25-.29l2.07-1c.25-.11.55.01.65.27.1.23,0,.49-.2.62l-1.61.81,17.73,33.93,30.17-32.14c.06-.06.13-.11.21-.13l36.77-11.35-18.19-29-1.34.1c-.27.03-.51-.17-.54-.44,0,0,0-.02,0-.02-.02-.27.19-.51.46-.53l1.65-.13c.18-.02.36.07.46.23l18.69,29.83c.07.14.07.3,0,.44-.05.15-.17.26-.32.31l-37.27,11.49-30.53,32.52c-.1.09-.23.14-.37.14Z"/>
    <path class="st0" d="M113.08,281.46h-.08c-.15-.03-.28-.12-.35-.26l-17.5-33.41c-.11-.21-.06-.47.13-.62.08-.07,8.3-6.8,12.18-16.12,3.58-8.6,9.74-12.87,16.48-11.43.14.03.26.12.33.25l16.31,29.43c.13.24.05.55-.19.68-.11.06-.24.08-.36.05-.27-.06-6.7-1.39-8.15,4.8-1.56,6.62-8.39,15.14-11.67,19.23l-.36.46c-1.96,2.44-4.11,4.72-6.43,6.82-.09.08-.22.12-.34.12ZM96.21,247.67l17,32.48c2.09-1.95,4.05-4.04,5.84-6.27l.36-.46c3.24-4,10-12.43,11.47-18.83,1.31-5.56,6.18-5.84,8.32-5.68l-15.7-28.37c-6.14-1.19-11.78,2.86-15.13,10.89-3.54,8.5-10.59,14.89-12.16,16.24Z"/>
    <path class="st0" d="M140.13,250c-.18,0-.35-.09-.44-.25l-16.31-29.44c-.03-.11-.03-.23,0-.34,1.18-5.5,7.22-8,19.58-8,10.79,0,15.16-3.43,15.2-3.46.11-.09.26-.13.4-.11.14.03.26.11.34.23l18.3,29.83c.14.23.07.53-.15.68-.05,0-1.34.86-8.88,3.24-5.23,1.66-11,1.43-15.65,1.25-1.85-.1-3.69-.1-5.54,0-4.38.36-6.31,6-6.33,6-.06.19-.23.32-.43.34l-.09.03ZM124.35,220l15.71,28.36c.82-1.8,2.94-5.39,6.79-5.71,1.89-.1,3.77-.1,5.66,0,4.56.18,10.24.4,15.31-1.2,2.78-.81,5.52-1.78,8.19-2.9l-17.73-28.92c-1.4.91-6.05,3.36-15.37,3.36-11.66,0-17.4,2.21-18.56,7.01Z"/>
    <path class="st0" d="M125.81,269.52c-.11,0-.22-.03-.31-.1-.22-.18-.25-.49-.08-.71,1.93-2.42,3.46-4.56,4.81-6.45,1.49-2.3,3.23-4.43,5.2-6.34,1.72-1.48,3.64-2.71,5.7-3.66.25-.11.54,0,.65.25,0,0,0,0,0,0,.11.25,0,.55-.26.66-1.96.91-3.79,2.09-5.44,3.5-1.89,1.86-3.57,3.93-5,6.17-1.36,1.9-2.9,4-4.85,6.49-.1.12-.26.19-.42.18Z"/>
    <path class="st0" d="M144.5,250.83c-.11,0-.22-.04-.3-.11-.22-.17-.26-.48-.09-.7,1.89-2.29,4.57-3.78,7.51-4.17l1.79-.14c7.67-.42,15.22-2.11,22.34-5,.26-.1.55.03.65.29.1.26-.03.55-.29.65-7.21,2.91-14.85,4.62-22.62,5.06l-1.78.14c-2.66.37-5.09,1.72-6.81,3.79-.1.12-.25.19-.4.19Z"/>
    <path class="st0" d="M101.55,252.42c-.28,0-.5-.22-.5-.5,0-.13.05-.25.13-.34,3.4-3.91,6.57-8.01,9.5-12.28,5.65-8.06,9.8-11.35,14.33-11.35.28,0,.5.22.5.5s-.22.5-.5.5c-4.16,0-8.08,3.17-13.51,10.93-2.96,4.3-6.16,8.44-9.58,12.38-.1.1-.23.16-.37.16Z"/>
    <path class="st0" d="M104.73,257.59c-.13,0-.25-.05-.34-.13-.19-.19-.2-.5,0-.69,0,0,0,0,0,0,3.4-3.92,6.57-8.02,9.51-12.29,5.64-8.06,9.79-11.35,14.33-11.35.27,0,.49.23.5.5,0,.28-.22.5-.5.5-4.17,0-8.08,3.17-13.52,10.93-2.96,4.3-6.16,8.44-9.58,12.38-.1.11-.25.17-.4.16Z"/>
    <path class="st0" d="M107.91,262.76c-.28,0-.5-.23-.49-.51,0-.12.05-.23.12-.32,3.4-3.91,6.57-8.01,9.51-12.28,5.64-8.07,9.79-11.36,14.33-11.36.27,0,.49.23.5.5,0,.28-.22.5-.5.5-4.17,0-8.08,3.17-13.51,10.93-2.96,4.3-6.17,8.44-9.59,12.38-.09.1-.23.16-.37.16Z"/>
    <path class="st0" d="M111.09,267.93c-.12,0-.24-.04-.33-.13-.19-.19-.2-.5,0-.69,0,0,0,0,0,0,3.4-3.91,6.57-8.01,9.51-12.28,5.64-8.07,9.79-11.35,14.33-11.35.28,0,.5.22.5.5s-.22.5-.5.5c-4.17,0-8.08,3.16-13.51,10.92-2.96,4.31-6.16,8.44-9.59,12.38-.1.12-.26.17-.41.16Z"/>
    <path class="st0" d="M130.58,226.57h-.17c-.26-.1-.39-.38-.3-.64,0-.05,1.79-4.71,8-4.71,11.65,0,19.21-1.8,20.21-4.83.09-.28.38-.43.66-.34s.43.38.34.66c-1.59,4.8-13.94,5.51-21.16,5.51-5.52,0-7,3.88-7.09,4.05-.08.19-.28.31-.49.3Z"/>
    <path class="st0" d="M134.16,232.53c-.11,0-.22-.03-.31-.1-.21-.17-.25-.48-.08-.7.12-.16,3-3.78,10.73-3.78,8.31,0,14.48-1.95,18.35-5.82.19-.19.51-.19.7,0,.2.19.2.51,0,.71,0,0,0,0,0,0-4.05,4.06-10.46,6.16-19.05,6.16-7.18,0-9.92,3.36-9.94,3.39-.11.1-.25.15-.4.14Z"/>
    <path class="st0" d="M136.55,238.5c-.07,0-.14-.02-.21-.05-.25-.11-.36-.4-.25-.65,0,0,0,0,0-.01,1.89-3.51,5.62-5.63,9.6-5.46,8.36,0,15.68-1.75,19.59-4.67.21-.17.52-.13.69.08,0,0,0,.01.01.02.16.22.12.53-.1.7-5.87,4.39-16.08,4.87-20.19,4.87-3.59-.17-6.97,1.73-8.7,4.88-.08.18-.26.29-.45.29Z"/>
    <path class="st0" d="M139.33,242.87s-.09,0-.14,0c-.26-.08-.41-.36-.34-.62.06-.18,1.38-4.32,8.41-4.73,7.32-.39,14.52-1.99,21.31-4.73.24-.14.54-.06.68.18.14.24.06.54-.18.68-.03.02-.07.03-.1.04-6.9,2.8-14.21,4.43-21.65,4.82-6.29.37-7.46,3.87-7.51,4-.07.21-.26.35-.48.35Z"/>
    <path class="st0" d="M333,126.08h0c-.15-.02-.29-.1-.37-.23l-14.08-22.77-26.92-14.67c-.15-.07-.24-.22-.26-.38-.02-.16.04-.32.16-.43l20.12-18.23c.1-.09.23-.14.37-.13.13,0,.25.07.34.17l1.05,1.2c.15.23.09.54-.14.69-.19.13-.44.11-.61-.04l-.71-.81-19.23,17.42,26.39,14.39c.07.05.14.11.19.18l13.81,22.33,15.95-16.92-.27-.78c-.09-.26.05-.55.31-.64.26-.09.55.05.64.31l.37,1.07c.06.18.02.37-.11.51l-16.61,17.61c-.1.1-.24.16-.39.15Z"/>
    <path class="st0" d="M320.7,100.47c-.06,0-.12,0-.18,0-.19-.07-.31-.25-.32-.45,0-.18-.23-4.57-4.44-4.44-4.74.1-11.59-3-14.89-4.45l-.36-.16c-1.97-.89-3.87-1.92-5.68-3.1-.13-.09-.21-.23-.22-.38-.01-.16.05-.31.17-.41l19.22-17.47c.19-.15.45-.15.64,0,3.82,2.66,8.18,4.46,12.76,5.28,6.42.91,10.38,4.33,10.59,9.14,0,.14-.05.28-.15.38l-16.76,16c-.11.07-.25.09-.38.06ZM315.91,94.54c2.58-.05,4.79,1.84,5.14,4.4l15.95-15.13c-.3-4.23-3.83-7.12-9.72-8-4.62-.79-9.02-2.57-12.88-5.23l-18.47,16.77c1.6,1.01,3.27,1.9,5,2.67l.36.16c3.24,1.45,10,4.48,14.46,4.36h.16Z"/>
    <path class="st0" d="M334.19,123c-.12,0-.24-.04-.34-.12-.08-.08-.87-.84-3.72-5.38-2-3.22-2.88-7.12-3.56-10.25-.24-1.24-.56-2.46-.93-3.67-1-2.76-4.93-3.06-5-3.07-.2-.01-.37-.14-.44-.32-.06-.19-.01-.4.13-.54l16.76-15.95c.09-.08.2-.13.32-.13,3.93-.19,6.68,3.45,8.84,11.77,1.86,7.15,4.85,9.4,4.88,9.42.12.09.19.22.21.36.01.14-.04.29-.14.39l-16.65,17.29c-.09.11-.22.19-.36.2ZM321.79,99.67c1.44.31,3.95,1.17,4.79,3.58.41,1.24.74,2.5,1,3.78.67,3.06,1.51,6.86,3.44,9.94,1,1.65,2.07,3.25,3.23,4.79l15.93-16.57c-.95-.91-3.27-3.64-4.83-9.6-1.95-7.51-4.38-11-7.63-11h0l-15.93,15.08Z"/>
    <path class="st0" d="M318.79,101.81c-.15,0-.29-.07-.39-.19-.94-1.14-2.03-2.15-3.24-3-1.56-.94-3.22-1.7-4.94-2.27-1.5-.57-3.2-1.22-5.17-2.1-.25-.11-.36-.41-.25-.66.11-.25.39-.36.64-.26,0,0,.01,0,.02,0,1.94.86,3.63,1.51,5.11,2.08,1.8.59,3.54,1.39,5.16,2.38,1.29.9,2.45,1.97,3.46,3.18.17.22.13.54-.09.71-.09.07-.2.12-.31.12Z"/>
    <path class="st0" d="M332.46,122.84c-.16,0-.31-.08-.41-.21-3.2-4.3-5.66-9.11-7.3-14.21-.14-.42-.28-.81-.4-1.16-.7-1.66-1.99-3.01-3.62-3.79-.26-.08-.41-.36-.33-.63s.36-.41.63-.33c.03.01.07.03.1.04,1.89.87,3.38,2.43,4.16,4.36.13.36.26.75.4,1.17,1.61,5.03,4.04,9.76,7.18,14,.16.22.11.53-.11.68,0,0,0,0,0,0-.09.05-.19.07-.29.06Z"/>
    <path class="st0" d="M332.11,86.76c-.23,0-.43-.16-.48-.38-.71-2.71-3.46-4.74-9.51-7-3.38-1.22-6.7-2.64-9.92-4.24-.25-.11-.36-.41-.25-.66.11-.25.41-.36.66-.25.02,0,.04.02.06.03,3.18,1.57,6.45,2.97,9.79,4.19,6.4,2.37,9.34,4.6,10.14,7.67.07.27-.09.54-.36.61,0,0,0,0,0,0l-.13.03Z"/>
    <path class="st0" d="M329.22,89.77c-.23,0-.42-.15-.48-.37-.71-2.72-3.46-4.74-9.51-7-3.38-1.23-6.7-2.65-9.92-4.25-.25-.11-.36-.41-.25-.66.11-.25.41-.36.66-.25.02,0,.04.02.06.03,3.18,1.58,6.46,2.98,9.8,4.19,6.39,2.38,9.33,4.6,10.13,7.67.07.26-.08.53-.34.6,0,0-.01,0-.02,0-.04.02-.08.03-.13.03Z"/>
    <path class="st0" d="M326.33,92.78c-.23,0-.42-.15-.48-.37-.71-2.72-3.46-4.74-9.51-7-3.38-1.22-6.7-2.64-9.92-4.24-.25-.13-.34-.43-.21-.68s.43-.34.68-.21h0c3.18,1.58,6.46,2.98,9.8,4.19,6.39,2.38,9.33,4.6,10.13,7.68.07.27-.09.54-.36.61,0,0,0,0,0,0l-.13.02Z"/>
    <path class="st0" d="M323.44,95.8c-.23,0-.43-.16-.48-.38-.71-2.71-3.46-4.74-9.51-7-3.38-1.22-6.7-2.64-9.92-4.24-.24-.13-.34-.43-.21-.68.14-.24.43-.33.68-.21,3.18,1.59,6.45,2.99,9.8,4.19,6.39,2.38,9.33,4.61,10.13,7.68.07.27-.09.54-.36.61,0,0,0,0,0,0l-.13.03Z"/>
    <path class="st0" d="M345.91,107.19h0c-3.39-.23-5.94-7.33-7.48-13.24-.93-3.56-3.67-3.89-3.79-3.9-.27-.03-.47-.28-.44-.55.03-.27.27-.47.54-.45.15,0,3.55.38,4.66,4.64,2,7.69,4.46,12.36,6.57,12.5.28.02.49.25.47.53,0,0,0,0,0,0-.02.27-.26.48-.53.47Z"/>
    <path class="st0" d="M342.7,111.13c-.09,0-.18-.02-.26-.07-3.44-2-5.94-6-7.44-11.71-1.22-4.69-3.86-5.92-3.89-5.93-.24-.14-.32-.44-.18-.68.12-.2.36-.3.58-.23.13,0,3.11,1.38,4.46,6.59,1.43,5.49,3.78,9.22,7,11.1.24.14.32.44.18.68-.09.16-.27.25-.45.25Z"/>
    <path class="st0" d="M339.4,113.68c-.11,0-.22-.04-.31-.11-4-3.17-6.07-9.91-6.79-12.67-.51-2.35-2.3-4.22-4.63-4.82-.27-.05-.45-.31-.4-.58.05-.27.31-.45.58-.41,2.72.67,4.82,2.83,5.42,5.56,1.44,5.53,3.85,10.07,6.44,12.14.22.17.26.48.09.7,0,0,0,0,0,0-.09.12-.24.18-.39.18Z"/>
    <path class="st0" d="M336.51,116.7c-.15,0-.29-.07-.39-.19-3.07-4.12-5.44-8.72-7-13.62-1.3-4-3.73-4.19-3.83-4.19-.28-.02-.49-.25-.48-.53,0-.25.19-.47.45-.47.02,0,.05,0,.07,0,.13,0,3.22.17,4.74,4.88,1.53,4.78,3.84,9.27,6.82,13.31.17.22.13.53-.09.7-.08.07-.18.1-.29.11Z"/>
    <path class="st0" d="M154.46,138.11h-.12l-3.62-.9c-.27-.07-.43-.34-.36-.61.01-.05.03-.1.06-.14l16.71-26.2c.15-.23.46-.3.7-.15.23.15.3.46.15.69l-16.34,25.61,2.6.65,16.51-24.55c.15-.22.44-.29.67-.16l26.31,15.17,2.86-2.86-28.75-15c-.25-.13-.34-.43-.21-.68s.43-.34.68-.21l29.36,15.36c.14.07.24.21.26.37.02.15-.03.31-.14.42l-3.61,3.62c-.16.16-.4.19-.6.08l-26.25-15.13-16.45,24.46c-.1.12-.26.17-.41.16Z"/>
    <path class="st0" d="M200.52,169.27c-.08,0-.17-.02-.24-.06l-22.13-12.65c-.13-.07-.22-.2-.25-.35l-7.23-43.36c-.04-.28.14-.53.42-.58.27-.04.53.15.57.42,0,0,0,0,0,0l7.19,43.12,21.15,12.06-3.09-37.45c-.01-.27.19-.51.46-.54.28-.02.52.18.54.46,0,0,0,0,0,0l3.09,38.39c.02.18-.07.36-.23.46-.07.05-.16.08-.25.08Z"/>
    <path class="st0" d="M200.52,169.27c-.28,0-.5-.23-.5-.5,0-.08.02-.16.06-.23l3.55-6.65-2.7-37.34c-.02-.28.19-.52.46-.54.28-.02.52.19.54.47l2.71,37.52c0,.09-.02.19-.06.27l-3.58,6.73c-.09.18-.28.28-.48.27Z"/>
    <path class="st0" d="M163.49,177h-.1c-.19-.04-.35-.19-.39-.38l-7.68-35.23c-.06-.27.12-.54.39-.6.27-.06.53.12.59.39,0,0,0,0,0,0l7.44,34.14,14.26-19.49c.16-.22.48-.27.7-.11s.27.48.11.7l-14.91,20.33c-.08.15-.24.25-.41.25Z"/>
    <path class="st0" d="M163.49,177h-.06l-4.06-.45c-.21-.02-.38-.18-.43-.39l-8.58-39.3c-.06-.28.12-.55.39-.61.28-.06.55.12.61.4l8.51,38.94,3.7.41c.28,0,.5.22.5.5s-.22.5-.5.5h-.08Z"/>
    <path class="st0" d="M160.33,144.43c-.28,0-.5-.22-.5-.5,0-.1.03-.21.09-.29l11.75-16.26c.15-.22.45-.28.67-.13,0,0,.02.01.02.02.23.16.28.47.12.7,0,0,0,0,0,0l-11.75,16.26c-.09.13-.24.2-.4.2Z"/>
    <path class="st0" d="M161.23,152.11c-.1,0-.2-.03-.29-.09-.22-.17-.27-.48-.11-.7l11.74-16.26c.15-.22.46-.28.68-.12,0,0,.01,0,.02.01.22.16.27.47.11.69l-11.74,16.26c-.09.13-.25.21-.41.21Z"/>
    <path class="st0" d="M162.13,159.79c-.11,0-.21-.03-.29-.1-.22-.16-.27-.47-.11-.69l11.74-16.26c.16-.23.47-.28.7-.12,0,0,0,0,0,0,.22.17.27.48.11.7l-11.74,16.26c-.09.13-.25.21-.41.21Z"/>
    <path class="st0" d="M163,167.47c-.11,0-.21-.03-.29-.1-.23-.16-.28-.47-.12-.7,0,0,0,0,0,0l11.75-16.26c.16-.22.47-.27.69-.11.23.16.28.47.12.7,0,0,0,0,0,0l-11.75,16.26c-.09.13-.24.21-.4.21Z"/>
    <path class="st0" d="M192.85,137.66c-.09,0-.18-.02-.25-.07l-15.81-9c-.24-.14-.32-.44-.18-.69.14-.24.44-.32.68-.18l15.81,9c.24.14.32.45.18.69-.09.15-.25.25-.43.25Z"/>
    <path class="st0" d="M192.85,144.88c-.09,0-.17-.02-.25-.06l-15.81-9c-.25-.11-.36-.41-.25-.66s.41-.36.66-.25c.03.01.06.03.09.05l15.81,9c.24.14.32.44.18.68-.09.15-.25.24-.43.24Z"/>
    <path class="st0" d="M195.1,152.56c-.08,0-.17-.02-.24-.06l-15.81-9c-.24-.14-.32-.44-.19-.68.14-.24.45-.33.69-.19l15.8,9c.24.13.33.43.2.66,0,0,0,.01,0,.02-.09.16-.26.25-.44.25Z"/>
    <path class="st0" d="M195.56,160.24c-.09,0-.18-.02-.25-.07l-15.81-9c-.24-.14-.32-.44-.18-.68s.44-.32.68-.18l15.81,9c.24.14.32.45.17.69-.09.15-.25.24-.42.24h0Z"/>
    <path class="st0" d="M392,303c-.06.01-.12.01-.18,0l-30.76-12.32c-.15-.06-.26-.18-.3-.34-.04-.15,0-.32.1-.44l3.23-4c.14-.17.38-.23.59-.14l27.64,12.41,13.9-26c.1-.18.3-.28.51-.26l3.69.54c.16.02.3.12.37.26.07.14.07.32,0,.46l-14,27.74c-.12.25-.43.35-.68.23-.25-.12-.35-.43-.22-.68l13.68-27.12-2.65-.39-13.92,26.05c-.13.23-.41.33-.65.22l-27.71-12.44-2.56,3.22,30.13,12c.25.11.38.39.28.65-.07.21-.27.35-.49.35Z"/>
    <path class="st0" d="M392.56,299.29c-.23,0-.43-.14-.49-.36l-11.49-42.19-22.21-9.87,6.84,36.95c.05.27-.13.53-.4.58-.27.05-.53-.13-.58-.4l-7-37.88c-.04-.18.03-.37.18-.48.14-.12.34-.14.51-.07l23.29,10.36c.14.06.24.18.28.32l11.51,42.41c.07.27-.09.54-.35.62h-.09Z"/>
    <path class="st0" d="M361.27,290.66c-.25,0-.45-.18-.49-.42l-6.48-37c-.02-.09-.02-.18,0-.27l2.92-7.11c.13-.24.43-.34.68-.21.21.11.31.36.24.59l-2.86,7,6.45,36.88c.05.27-.13.53-.41.58,0,0,0,0,0,0l-.05-.04Z"/>
    <path class="st0" d="M405,269.44c-.22,0-.41-.14-.48-.35l-10.84-33.22-12.22,20.77c-.15.23-.45.31-.69.16-.23-.14-.31-.44-.17-.67l12.78-21.72c.1-.17.29-.27.49-.24.19.02.36.15.42.34l11.18,34.27c.09.26-.05.53-.3.62,0,0-.01,0-.02,0l-.15.03Z"/>
    <path class="st0" d="M410.37,273.43c-.22,0-.41-.13-.48-.34l-12.38-37.89h-3.73c-.28,0-.5-.22-.5-.5.01-.28.23-.49.51-.5h4.09c.22,0,.41.14.47.35l12.49,38.23c.09.26-.05.53-.3.62,0,0-.01,0-.02,0l-.15.02Z"/>
    <path class="st0" d="M390.16,284.56c-.09,0-.18-.02-.25-.07-.24-.14-.32-.44-.19-.68l10-17.36c.14-.24.44-.32.68-.19.24.14.32.45.19.69l-10.05,17.36c-.08.14-.22.23-.38.25Z"/>
    <path class="st0" d="M388.49,277c-.09,0-.18-.02-.25-.07-.24-.14-.32-.44-.19-.68l10.05-17.35c.11-.25.41-.36.66-.25s.36.41.25.66c-.01.03-.03.06-.05.09l-10,17.36c-.1.16-.28.26-.47.24Z"/>
    <path class="st0" d="M386.81,269.46c-.09,0-.17-.02-.25-.07-.24-.13-.32-.43-.19-.67,0,0,0,0,0-.01l10.05-17.36c.16-.22.48-.27.7-.11.19.14.26.39.16.61l-10,17.36c-.1.17-.29.27-.48.25Z"/>
    <path class="st0" d="M385.14,261.91c-.09,0-.17-.02-.25-.07-.24-.13-.32-.43-.19-.67,0,0,0,0,0-.01l10-17.36c.14-.24.45-.32.69-.18.24.13.32.43.19.67,0,0,0,0,0,.01l-10.05,17.36c-.08.14-.23.24-.39.25Z"/>
    <path class="st0" d="M385.17,284.61c-.07,0-.14-.02-.2-.05l-16.64-7.39c-.25-.11-.36-.39-.26-.64,0,0,0-.01,0-.02.11-.25.4-.37.66-.26h0s16.63,7.4,16.63,7.4c.28.06.46.32.4.6s-.32.46-.6.4v-.04Z"/>
    <path class="st0" d="M384.44,277.42c-.07.01-.13.01-.2,0l-16.64-7.42c-.26-.1-.39-.39-.29-.64s.39-.39.64-.29c.02,0,.04.02.06.03l16.63,7.39c.28.06.46.32.4.6s-.32.46-.6.4h0v-.06Z"/>
    <path class="st0" d="M381.42,270c-.07,0-.14-.02-.2-.05l-16.64-7.39c-.25-.11-.36-.39-.26-.64,0,0,0-.01,0-.02.11-.25.4-.37.66-.26h0s16.63,7.4,16.63,7.4c.25.11.37.4.26.66h0c-.08.18-.26.3-.46.3Z"/>
    <path class="st0" d="M380.2,262.41c-.07.02-.13.02-.2,0l-16.64-7.41c-.26-.08-.41-.36-.33-.63s.36-.41.63-.33c.03.01.07.03.1.04l16.64,7.4c.25.11.37.4.26.66h0c-.09.17-.27.27-.46.26Z"/>
  </g>
  <g id="freepik--Plants--inject-2">
    <path class="st6" d="M335.71,315.09c-2.8,6.93-5.68,1.36-5.22-27.67.21-13.61,1.17-41.41,16.22-35.29,14.45,5.88-4.6,47-4.6,47l-6.4,15.96ZM356.38,319.21s31.37-32.69,19.61-42.95c-12.25-10.67-22.18,15.31-26.81,28.11-9.86,27.31-8.94,33.51-4,27.88l11.2-13.04ZM363,348.55s28.72-20.45,21.21-30c-7.82-9.93-19.18,8.49-24.57,17.61-11.49,19.45-11.69,24.33-7.13,20.73l10.49-8.34ZM370.77,377.8s28.72-20.45,21.21-30c-7.81-9.94-19.17,8.49-24.56,17.6-11.5,19.45-11.7,24.33-7.13,20.73l10.48-8.33ZM320.61,319s-40.19-20.92-46.72-6.75c-6.81,14.76,20.92,17,34.5,17.83,29,1.78,34.68-.84,27.89-4l-15.67-7.08ZM326.27,342s-43.54-12.52-47.13,2.67c-3.74,15.83,23.86,12.51,37.36,10.63,28.76-4,33.82-7.71,26.55-9.42l-16.78-3.88ZM336.27,367.1s-37.12-9.57-39.8,3.36c-2.79,13.45,20.49,10,31.84,8.1,24.23-4.05,28.42-7.3,22.23-8.58l-14.27-2.88ZM342.08,387.83s-35.89-13.46-39.93-.89c-4.21,13.09,19.31,12.13,30.8,11.44,24.52-1.46,29-4.24,23-6.17l-13.87-4.38ZM318.08,282.83s-16.38-50.92-35-41.67c-19.36,9.63,3,32.59,14.19,43.58,23.87,23.46,31.26,25.1,28.12,16.91l-7.31-18.82Z"/>
    <path class="st2" d="M335.71,315.09c-2.8,6.93-5.68,1.36-5.22-27.67.21-13.61,1.17-41.41,16.22-35.29,14.45,5.88-4.6,47-4.6,47l-6.4,15.96ZM356.38,319.21s31.37-32.69,19.61-42.95c-12.25-10.67-22.18,15.31-26.81,28.11-9.86,27.31-8.94,33.51-4,27.88l11.2-13.04ZM363,348.55s28.72-20.45,21.21-30c-7.82-9.93-19.18,8.49-24.57,17.61-11.49,19.45-11.69,24.33-7.13,20.73l10.49-8.34ZM370.77,377.8s28.72-20.45,21.21-30c-7.81-9.94-19.17,8.49-24.56,17.6-11.5,19.45-11.7,24.33-7.13,20.73l10.48-8.33ZM320.61,319s-40.19-20.92-46.72-6.75c-6.81,14.76,20.92,17,34.5,17.83,29,1.78,34.68-.84,27.89-4l-15.67-7.08ZM326.27,342s-43.54-12.52-47.13,2.67c-3.74,15.83,23.86,12.51,37.36,10.63,28.76-4,33.82-7.71,26.55-9.42l-16.78-3.88ZM336.27,367.1s-37.12-9.57-39.8,3.36c-2.79,13.45,20.49,10,31.84,8.1,24.23-4.05,28.42-7.3,22.23-8.58l-14.27-2.88ZM342.08,387.83s-35.89-13.46-39.93-.89c-4.21,13.09,19.31,12.13,30.8,11.44,24.52-1.46,29-4.24,23-6.17l-13.87-4.38ZM318.08,282.83s-16.38-50.92-35-41.67c-19.36,9.63,3,32.59,14.19,43.58,23.87,23.46,31.26,25.1,28.12,16.91l-7.31-18.82Z"/>
    <path class="st7" d="M362.35,423.63c-.33,0-.6-.26-.62-.59-1.51-26.61-9-58.74-20.5-88.15-9.7-24.76-50.48-74.67-50.9-75.17-.22-.27-.18-.66.09-.88.26-.22.65-.18.87.08,0,0,0,0,0,0,.41.5,41.33,50.57,51.1,75.5,11.6,29.57,19.07,61.8,20.6,88.57.02.34-.25.64-.59.66l-.06-.03Z"/>
    <path class="st7" d="M333.62,318.89h-.07c-.35-.04-.59-.35-.55-.7l5.72-47.88c.04-.34.35-.59.69-.54.34.04.59.35.55.69h0l-5.72,47.88c-.04.31-.3.55-.62.55Z"/>
    <path class="st7" d="M341.81,335.29c-.1,0-.19-.03-.28-.07-.31-.16-.43-.54-.27-.85,0,0,0,0,0,0l20.74-40.24c.13-.32.49-.48.82-.36s.48.49.36.82c-.02.04-.04.08-.06.12l-20.74,40.29c-.12.19-.34.3-.56.29Z"/>
    <path class="st7" d="M338.79,329.32h-.12l-43.36-8.83c-.35-.04-.59-.35-.56-.7s.35-.59.7-.56c.04,0,.07.01.11.02l43.36,8.83c.33.07.55.4.48.74-.06.29-.32.49-.61.49Z"/>
    <path class="st7" d="M350,358.12c-.35-.02-.61-.32-.59-.67,0-.12.05-.24.12-.33l25.47-29.12c.23-.26.62-.29.88-.06s.29.62.06.88h0l-25.49,29.05c-.11.14-.27.23-.45.25Z"/>
    <path class="st7" d="M346.4,348.55h0l-32.73-.28c-.34,0-.62-.29-.62-.63.01-.34.29-.61.63-.62l32.73.28c.34,0,.62.29.62.63,0,.34-.28.62-.62.62,0,0,0,0-.01,0Z"/>
    <path class="st7" d="M327.6,373.31c-.34,0-.62-.27-.63-.61,0-.34.26-.63.6-.65l25.1-1c.34-.01.63.26.65.6.02.34-.25.63-.59.65,0,0,0,0-.01,0l-25.1,1h-.02Z"/>
    <path class="st7" d="M357.85,387.48c-.13,0-.27-.05-.37-.13-.28-.21-.34-.6-.13-.88l13.44-17.91c.21-.28.6-.34.88-.13.28.2.33.59.13.87,0,0,0,0,0,.01l-13.44,17.92c-.12.16-.3.25-.5.25Z"/>
    <path class="st7" d="M358.84,394.14h0l-29.35-1.46c-.35-.02-.62-.31-.6-.66,0,0,0,0,0,0,.02-.34.32-.61.66-.59l29.36,1.46c.34.02.61.31.59.65,0,0,0,0,0,0-.02.35-.31.62-.66.6,0,0,0,0,0,0Z"/>
    <path class="st6" d="M414.86,354.75c-5.07,1.91-3.52-2.36,12.15-16.39,7.34-6.57,22.6-19.73,26.74-8.72,4,10.58-27.25,20.65-27.25,20.65l-11.64,4.46ZM422.86,367.75s32.8.62,32.48-10.68c-.34-11.76-19.05-4.27-28.13-.44-19.37,8.18-22.22,11.71-16.81,11.55l12.46-.43ZM410.47,385.7s25,5.23,26.38-3.46c1.45-9-13.94-6-21.44-4.41-16,3.45-18.69,5.74-14.53,6.4l9.59,1.47ZM398.73,404.22s25,5.22,26.38-3.46c1.45-9-13.94-6-21.44-4.42-16,3.45-18.69,5.74-14.53,6.4l9.59,1.48ZM405.36,348.63s-8.63-31.63-19.36-28.17c-11.19,3.63,1.25,19.48,7.48,27.11,13.3,16.3,17.49,18,15.81,12.89l-3.93-11.83ZM395.89,363s-14.75-29.32-24.59-23.76c-10.24,5.76,5.1,18.76,12.7,25.05,16.27,13.33,20.73,14.2,18.06,9.49l-6.17-10.78ZM387.44,380.64s-13.15-24.45-21.35-19.52c-8.53,5.13,4.75,15.82,11.34,20.92,14.07,10.89,17.85,11.53,15.49,7.61l-5.48-9.01ZM379.27,393.92s-10.48-25.71-19.16-21.68c-9,4.2,3.05,16.23,9.06,22,12.83,12.32,16.53,13.36,14.59,9.21l-4.49-9.53ZM423.27,329.53s19-33.75,5-39.09c-14.64-5.57-15.86,17.61-16.2,29-.75,24.22,2,29,4.82,23.26l6.38-13.17Z"/>
    <path class="st8" d="M414.86,354.75c-5.07,1.91-3.52-2.36,12.15-16.39,7.34-6.57,22.6-19.73,26.74-8.72,4,10.58-27.25,20.65-27.25,20.65l-11.64,4.46ZM422.86,367.75s32.8.62,32.48-10.68c-.34-11.76-19.05-4.27-28.13-.44-19.37,8.18-22.22,11.71-16.81,11.55l12.46-.43ZM410.47,385.7s25,5.23,26.38-3.46c1.45-9-13.94-6-21.44-4.41-16,3.45-18.69,5.74-14.53,6.4l9.59,1.47ZM398.73,404.22s25,5.22,26.38-3.46c1.45-9-13.94-6-21.44-4.42-16,3.45-18.69,5.74-14.53,6.4l9.59,1.48ZM405.36,348.63s-8.63-31.63-19.36-28.17c-11.19,3.63,1.25,19.48,7.48,27.11,13.3,16.3,17.49,18,15.81,12.89l-3.93-11.83ZM395.89,363s-14.75-29.32-24.59-23.76c-10.24,5.76,5.1,18.76,12.7,25.05,16.27,13.33,20.73,14.2,18.06,9.49l-6.17-10.78ZM387.44,380.64s-13.15-24.45-21.35-19.52c-8.53,5.13,4.75,15.82,11.34,20.92,14.07,10.89,17.85,11.53,15.49,7.61l-5.48-9.01ZM379.27,393.92s-10.48-25.71-19.16-21.68c-9,4.2,3.05,16.23,9.06,22,12.83,12.32,16.53,13.36,14.59,9.21l-4.49-9.53ZM423.27,329.53s19-33.75,5-39.09c-14.64-5.57-15.86,17.61-16.2,29-.75,24.22,2,29,4.82,23.26l6.38-13.17Z"/>
    <path class="st7" d="M369.28,424c-.16,0-.32-.06-.43-.17-.25-.25-.25-.64,0-.89,13.73-14.2,28.31-35.51,38.05-55.61,8.39-17.3,14.89-63.5,14.95-64,.05-.34.37-.58.71-.54.34.05.58.37.53.71-.06.47-6.59,46.86-15.06,64.34-9.8,20.2-24.47,41.64-38.28,55.93-.11.14-.29.23-.47.23Z"/>
    <path class="st7" d="M412.14,355.82c-.2,0-.39-.1-.51-.26-.2-.28-.14-.67.14-.88l28.28-20.48c.24-.25.64-.25.89,0s.25.64,0,.89c-.05.05-.1.09-.16.12l-28.28,20.5c-.11.08-.24.12-.37.12Z"/>
    <path class="st7" d="M407.45,368.23c-.35-.01-.62-.3-.61-.65,0-.27.18-.5.44-.58l31.58-8.76c.33-.09.67.1.76.44.09.33-.1.67-.43.76l-31.58,8.77c-.05.02-.11.02-.16.02Z"/>
    <path class="st7" d="M409.13,363.69c-.22,0-.42-.11-.53-.3l-16.6-27.39c-.18-.29-.09-.67.2-.85,0,0,0,0,.01,0,.3-.18.68-.08.86.21l16.61,27.4c.18.3.08.68-.21.86-.1.06-.22.09-.34.08Z"/>
    <path class="st7" d="M399.3,383.79c-.35-.04-.59-.36-.55-.7.04-.29.26-.51.55-.55l28-.72c.34,0,.63.27.65.61,0,.34-.27.63-.61.64l-28,.72h-.04Z"/>
    <path class="st7" d="M402.64,377.19c-.17,0-.34-.07-.46-.2l-15.94-17.55c-.24-.25-.24-.64,0-.89.26-.23.66-.21.89.05,0,0,0,0,0,0l15.94,17.55c.21.28.14.68-.14.88-.1.07-.21.11-.33.12l.04.04Z"/>
    <path class="st7" d="M393.1,392.22c-.16,0-.32-.06-.44-.18l-12.87-12.86c-.23-.26-.22-.66.04-.89.24-.22.61-.22.85,0l12.86,12.86c.24.25.24.65-.01.89-.12.11-.27.18-.43.18Z"/>
    <path class="st7" d="M387.57,402.42c-.35-.02-.61-.32-.59-.66.02-.29.23-.54.52-.59l16.14-1.66c.35-.01.64.26.65.61,0,.31-.21.59-.52.64l-16.14,1.66h-.06Z"/>
    <path class="st7" d="M384.51,406.22c-.2.01-.38-.07-.51-.22l-13.66-16.33c-.22-.27-.18-.66.08-.88.26-.22.65-.19.87.07,0,0,0,0,0,0l13.7,16.32c.22.27.18.66-.08.88-.11.1-.26.15-.41.15Z"/>
    <path class="st6" d="M173.49,315.09c2.8,6.93,5.68,1.36,5.23-27.67-.22-13.61-1.18-41.41-16.23-35.29-14.45,5.88,4.6,47,4.6,47l6.4,15.96ZM152.82,319.21s-31.37-32.69-19.61-42.95c12.25-10.67,22.19,15.31,26.81,28.11,9.86,27.31,8.94,33.51,4,27.88l-11.2-13.04ZM146.2,348.55s-28.72-20.45-21.21-30c7.82-9.93,19.18,8.49,24.57,17.61,11.49,19.45,11.69,24.33,7.13,20.73l-10.49-8.34ZM138.43,377.8s-28.72-20.45-21.21-30c7.81-9.94,19.17,8.49,24.56,17.6,11.5,19.45,11.7,24.33,7.13,20.73l-10.48-8.33ZM188.59,319s40.19-20.92,46.72-6.75c6.81,14.76-20.92,17-34.5,17.83-29,1.78-34.68-.84-27.89-4l15.67-7.08ZM182.93,342s43.55-12.52,47.13,2.67c3.74,15.81-23.88,12.49-37.36,10.61-28.76-4-33.82-7.71-26.54-9.42l16.77-3.86ZM172.93,367.1s37.12-9.57,39.8,3.36c2.79,13.45-20.49,10-31.84,8.1-24.23-4.05-28.42-7.3-22.23-8.58l14.27-2.88ZM167.12,387.83s35.88-13.44,39.96-.83c4.21,13.09-19.31,12.13-30.8,11.44-24.52-1.46-29-4.24-23-6.17l13.84-4.44ZM191.12,282.83s16.39-50.92,35-41.67c19.36,9.63-3,32.59-14.19,43.58-23.87,23.46-31.26,25.1-28.11,16.91l7.3-18.82Z"/>
    <path class="st2" d="M173.49,315.09c2.8,6.93,5.68,1.36,5.23-27.67-.22-13.61-1.18-41.41-16.23-35.29-14.45,5.88,4.6,47,4.6,47l6.4,15.96ZM152.82,319.21s-31.37-32.69-19.61-42.95c12.25-10.67,22.19,15.31,26.81,28.11,9.86,27.31,8.94,33.51,4,27.88l-11.2-13.04ZM146.2,348.55s-28.72-20.45-21.21-30c7.82-9.93,19.18,8.49,24.57,17.61,11.49,19.45,11.69,24.33,7.13,20.73l-10.49-8.34ZM138.43,377.8s-28.72-20.45-21.21-30c7.81-9.94,19.17,8.49,24.56,17.6,11.5,19.45,11.7,24.33,7.13,20.73l-10.48-8.33ZM188.59,319s40.19-20.92,46.72-6.75c6.81,14.76-20.92,17-34.5,17.83-29,1.78-34.68-.84-27.89-4l15.67-7.08ZM182.93,342s43.55-12.52,47.13,2.67c3.74,15.81-23.88,12.49-37.36,10.61-28.76-4-33.82-7.71-26.54-9.42l16.77-3.86ZM172.93,367.1s37.12-9.57,39.8,3.36c2.79,13.45-20.49,10-31.84,8.1-24.23-4.05-28.42-7.3-22.23-8.58l14.27-2.88ZM167.12,387.83s35.88-13.44,39.96-.83c4.21,13.09-19.31,12.13-30.8,11.44-24.52-1.46-29-4.24-23-6.17l13.84-4.44ZM191.12,282.83s16.39-50.92,35-41.67c19.36,9.63-3,32.59-14.19,43.58-23.87,23.46-31.26,25.1-28.11,16.91l7.3-18.82Z"/>
    <path class="st7" d="M146.85,423.63h0c-.34-.02-.61-.32-.59-.66,1.51-26.74,9-59,20.59-88.54,9.76-24.93,50.68-75,51.09-75.5.21-.27.6-.31.87-.1,0,0,0,0,0,0,.27.22.31.61.09.88-.41.5-41.2,50.42-50.9,75.17-11.52,29.41-19,61.54-20.5,88.15-.02.34-.32.61-.66.59Z"/>
    <path class="st7" d="M175.58,318.89c-.32,0-.58-.24-.62-.55l-5.72-47.88c-.04-.34.2-.65.55-.7.34-.04.65.2.69.55l5.72,47.88c.04.35-.2.66-.55.7h-.07Z"/>
    <path class="st7" d="M167.39,335.29c-.23,0-.45-.13-.56-.34l-20.7-40.24c-.16-.31-.04-.69.27-.85,0,0,0,0,0,0,.31-.15.68-.03.85.27l20.69,40.24c.16.31.04.69-.27.85,0,0,0,0,0,0-.09.04-.18.07-.28.07Z"/>
    <path class="st7" d="M170.41,329.32c-.3,0-.55-.21-.61-.5-.07-.34.15-.67.49-.74l43.35-8.83c.33-.1.68.09.78.42s-.09.68-.42.78c-.04.01-.07.02-.11.02l-43.35,8.83h-.13Z"/>
    <path class="st7" d="M159.24,358.12c-.18,0-.35-.08-.47-.21l-25.49-29.05c-.23-.26-.2-.65.06-.88s.65-.2.88.06h0l25.49,29c.21.28.14.68-.14.88-.1.07-.21.11-.33.12v.08Z"/>
    <path class="st7" d="M162.81,348.55c-.34,0-.62-.27-.63-.61,0,0,0,0,0-.01,0-.34.28-.62.62-.63l32.73-.28h0c.34,0,.62.27.63.61,0,0,0,0,0,.01,0,.34-.28.62-.62.63l-32.73.28Z"/>
    <path class="st7" d="M181.6,373.31h0l-25.1-1c-.34-.06-.58-.38-.52-.72.05-.29.28-.5.57-.53l25.1,1c.34.02.61.31.6.65-.02.34-.31.61-.65.6Z"/>
    <path class="st7" d="M151.35,387.48c-.2,0-.38-.09-.5-.25l-13.44-17.92c-.21-.27-.16-.66.11-.87,0,0,0,0,.01,0,.28-.21.67-.15.88.13l13.44,17.91c.21.28.15.67-.13.88-.1.08-.24.13-.37.13Z"/>
    <path class="st7" d="M150.37,394.14c-.34,0-.61-.26-.63-.6-.02-.34.25-.63.59-.65,0,0,0,0,0,0l29.36-1.46c.34-.03.63.22.66.56,0,.01,0,.02,0,.03.02.35-.25.64-.6.66,0,0,0,0,0,0l-29.35,1.46h-.03Z"/>
    <path class="st6" d="M94.35,354.75c5.06,1.91,3.51-2.36-12.16-16.39-7.34-6.57-22.6-19.73-26.74-8.72-4,10.58,27.25,20.65,27.25,20.65l11.65,4.46ZM86.35,367.75s-32.81.62-32.49-10.68c.35-11.76,19-4.27,28.13-.44,19.37,8.18,22.22,11.71,16.82,11.55l-12.46-.43ZM98.73,385.7s-25,5.23-26.38-3.46c-1.44-9,13.94-6,21.44-4.41,16,3.45,18.69,5.74,14.53,6.4l-9.59,1.47ZM110.47,404.22s-25,5.22-26.38-3.46c-1.45-9,13.94-6,21.44-4.42,16,3.45,18.69,5.74,14.53,6.4l-9.59,1.48ZM103.84,348.63s8.63-31.66,19.38-28.17c11.19,3.63-1.25,19.48-7.48,27.11-13.3,16.3-17.49,18-15.81,12.89l3.91-11.83ZM113.31,363s14.75-29.32,24.59-23.76c10.25,5.79-5.1,18.84-12.72,25.09-16.27,13.33-20.73,14.2-18.06,9.49l6.19-10.82ZM121.76,380.64s13.15-24.45,21.35-19.52c8.53,5.13-4.75,15.82-11.34,20.92-14.07,10.89-17.85,11.53-15.49,7.61l5.48-9.01ZM129.93,393.92s10.48-25.71,19.16-21.68c9,4.2-3.05,16.23-9.06,22-12.83,12.32-16.53,13.36-14.59,9.21l4.49-9.53ZM85.93,329.53s-19-33.75-5-39.09c14.64-5.57,15.86,17.61,16.21,29,.74,24.22-2,29-4.83,23.26l-6.38-13.17Z"/>
    <path class="st8" d="M94.35,354.75c5.06,1.91,3.51-2.36-12.16-16.39-7.34-6.57-22.6-19.73-26.74-8.72-4,10.58,27.25,20.65,27.25,20.65l11.65,4.46ZM86.35,367.75s-32.81.62-32.49-10.68c.35-11.76,19-4.27,28.13-.44,19.37,8.18,22.22,11.71,16.82,11.55l-12.46-.43ZM98.73,385.7s-25,5.23-26.38-3.46c-1.44-9,13.94-6,21.44-4.41,16,3.45,18.69,5.74,14.53,6.4l-9.59,1.47ZM110.47,404.22s-25,5.22-26.38-3.46c-1.45-9,13.94-6,21.44-4.42,16,3.45,18.69,5.74,14.53,6.4l-9.59,1.48ZM103.84,348.63s8.63-31.66,19.38-28.17c11.19,3.63-1.25,19.48-7.48,27.11-13.3,16.3-17.49,18-15.81,12.89l3.91-11.83ZM113.31,363s14.75-29.32,24.59-23.76c10.25,5.79-5.1,18.84-12.72,25.09-16.27,13.33-20.73,14.2-18.06,9.49l6.19-10.82ZM121.76,380.64s13.15-24.45,21.35-19.52c8.53,5.13-4.75,15.82-11.34,20.92-14.07,10.89-17.85,11.53-15.49,7.61l5.48-9.01ZM129.93,393.92s10.48-25.71,19.16-21.68c9,4.2-3.05,16.23-9.06,22-12.83,12.32-16.53,13.36-14.59,9.21l4.49-9.53ZM85.93,329.53s-19-33.75-5-39.09c14.64-5.57,15.86,17.61,16.21,29,.74,24.22-2,29-4.83,23.26l-6.38-13.17Z"/>
    <path class="st7" d="M139.92,424c-.17,0-.33-.07-.45-.19-13.81-14.29-28.48-35.72-38.28-55.93-8.47-17.48-15-63.87-15.06-64.34-.05-.34.19-.66.53-.71.34-.04.66.2.71.54.06.46,6.56,46.67,14.95,64,9.74,20.1,24.32,41.41,38.05,55.61.25.25.25.64,0,.89-.13.1-.29.15-.45.13Z"/>
    <path class="st7" d="M97.06,355.82c-.13,0-.26-.04-.37-.12l-28.28-20.49c-.31-.16-.43-.54-.27-.85s.54-.43.85-.27c.06.03.11.07.16.12l28.28,20.48c.28.21.34.6.14.88-.12.16-.31.25-.51.25Z"/>
    <path class="st7" d="M101.76,368.23c-.06.01-.11.01-.17,0l-31.59-8.79c-.33-.09-.53-.43-.44-.77.09-.33.43-.53.77-.43l31.59,8.76c.33.1.52.46.41.79-.08.25-.31.43-.57.44Z"/>
    <path class="st7" d="M100.07,363.69c-.12,0-.23-.03-.33-.09-.29-.18-.39-.56-.21-.86l16.62-27.4c.15-.32.52-.45.84-.31.32.15.45.52.31.84-.02.04-.04.08-.07.12l-16.62,27.4c-.11.19-.31.3-.53.3Z"/>
    <path class="st7" d="M109.9,383.79h0l-28-.72c-.34-.01-.62-.3-.61-.64.03-.34.31-.61.65-.61l28,.72c.34,0,.62.29.61.63,0,0,0,0,0,.01-.01.35-.3.62-.65.61,0,0,0,0,0,0Z"/>
    <path class="st7" d="M106.56,377.19c-.34-.02-.61-.31-.59-.65,0-.13.05-.25.13-.35l15.9-17.59c.23-.26.63-.28.89-.05,0,0,0,0,0,0,.24.25.24.64,0,.89l-15.89,17.56c-.12.12-.27.19-.44.19Z"/>
    <path class="st7" d="M116.1,392.22c-.35,0-.63-.29-.62-.64,0-.16.07-.31.18-.43l12.86-12.86c.26-.23.66-.22.89.04.22.24.22.61,0,.85l-12.87,12.82c-.11.13-.27.21-.44.22Z"/>
    <path class="st7" d="M121.63,402.42h-.06l-16.14-1.66c-.34-.06-.57-.39-.51-.73.05-.31.33-.53.64-.52l16.14,1.66c.34.06.57.38.52.73-.05.29-.29.51-.59.52Z"/>
    <path class="st7" d="M124.69,406.22c-.15,0-.29-.05-.4-.15-.26-.22-.3-.61-.08-.88l13.66-16.33c.22-.26.61-.3.87-.09,0,0,0,0,0,0,.26.22.3.61.08.88l-13.66,16.34c-.12.14-.3.22-.48.22Z"/>
  </g>
  <g id="freepik--Character--inject-2">
    <rect class="st1" x="187.65" y="311.7" width="105.72" height="21.64"/>
    <path class="st0" d="M293.37,333.84h-105.72c-.27,0-.49-.23-.5-.5v-21.64c0-.28.22-.5.5-.5h105.72c.28,0,.5.22.5.5v21.64c0,.28-.22.5-.5.5ZM188.15,332.84h104.72v-20.64h-104.72v20.64Z"/>
    <path class="st0" d="M207.3,317.81h-18.55c-.28,0-.5-.22-.5-.5s.22-.5.5-.5h18.55c.28,0,.5.22.5.5s-.22.5-.5.5Z"/>
    <path class="st0" d="M216,323.71h-2.53c-.28,0-.5-.22-.5-.5s.22-.5.5-.5h2.53c.28,0,.5.22.5.5s-.22.5-.5.5Z"/>
    <path class="st0" d="M209.27,323.71h-20.81c-.28,0-.5-.22-.5-.5,0-.27.23-.49.5-.5h20.81c.28,0,.5.22.5.5s-.22.5-.5.5Z"/>
    <path class="st0" d="M197.46,329.83h-8.56c-.28,0-.5-.22-.5-.5s.22-.5.5-.5h8.56c.28,0,.5.22.5.5s-.22.5-.5.5Z"/>
    <path class="st1" d="M271.67,312.44c-1.79,6.68-1.79,13.72,0,20.4h42.6s-4.48-12.94,0-20.4h-42.6Z"/>
    <path class="st0" d="M314.27,333.34h-42.6c-.23,0-.43-.15-.49-.37-1.8-6.78-1.8-13.9,0-20.68.07-.21.26-.35.48-.35h42.6c.28,0,.5.24.5.52,0,.08-.02.16-.07.24-4.31,7.18,0,19.85,0,20,.09.26-.05.55-.31.63-.05.02-.1.03-.16.03l.05-.02ZM272.05,332.34h41.53c-.83-2.68-3.54-12.69-.16-19.4h-41.42c-1.59,6.37-1.57,13.04.05,19.4Z"/>
    <g class="st9">
      <g class="st5">
        <path d="M271.67,312.44c-1.79,6.68-1.79,13.72,0,20.4h42.6s-4.48-12.94,0-20.4h-42.6Z"/>
        <path class="st0" d="M314.27,333.34h-42.6c-.23,0-.43-.15-.49-.37-1.8-6.78-1.8-13.9,0-20.68.07-.21.26-.35.48-.35h42.6c.28,0,.5.24.5.52,0,.08-.02.16-.07.24-4.31,7.18,0,19.85,0,20,.09.26-.05.55-.31.63-.05.02-.1.03-.16.03l.05-.02ZM272.05,332.34h41.53c-.83-2.68-3.54-12.69-.16-19.4h-41.42c-1.59,6.37-1.57,13.04.05,19.4Z"/>
      </g>
    </g>
    <path class="st0" d="M188.9,329.33v-14.77c0-.76.61-1.37,1.37-1.37h125.73c.55,0,1-.45,1-1h0c0-.55-.45-1-1-1h-129.13c-.76,0-1.37.61-1.37,1.37v18.84c0,1.22.98,2.21,2.2,2.22,0,0,0,0,.01,0h128.29c.55,0,1-.45,1-1h0c0-.55-.45-1-1-1h-124.89c-1.23,0-2.22-1-2.21-2.23,0-.02,0-.04,0-.06Z"/>
    <path class="st0" d="M316,334.12h-128.29c-1.5,0-2.71-1.22-2.71-2.72v-18.91c0-1.03.84-1.87,1.87-1.87h129.13c.85-.07,1.59.56,1.66,1.41.07.85-.56,1.59-1.41,1.66-.08,0-.17,0-.25,0h-125.73c-.48,0-.87.39-.87.87v14.77c0,.95.76,1.71,1.71,1.72h124.89c.85-.07,1.59.56,1.66,1.41.07.85-.56,1.59-1.41,1.66-.08,0-.17,0-.25,0ZM186.91,311.62c-.48,0-.87.39-.87.87v18.91c0,.95.76,1.71,1.71,1.72h128.25c.3.04.57-.17.61-.46.04-.3-.17-.57-.46-.61-.05,0-.1,0-.15,0h-124.89c-1.5,0-2.71-1.21-2.71-2.71,0,0,0,0,0-.01v-14.77c0-1.03.84-1.87,1.87-1.87h125.73c.3.04.57-.17.61-.46.04-.3-.17-.57-.46-.61-.05,0-.1,0-.15,0h-129.09Z"/>
    <rect class="st1" x="187.65" y="356.36" width="105.72" height="21.64"/>
    <path class="st0" d="M293.37,378.5h-105.72c-.28,0-.5-.22-.5-.5v-21.64c0-.27.23-.49.5-.5h105.72c.28,0,.5.22.5.5v21.64c0,.28-.22.5-.5.5ZM188.15,377.5h104.72v-20.64h-104.72v20.64Z"/>
    <path class="st0" d="M208,361h-18.58c-.28,0-.5-.22-.5-.5s.22-.5.5-.5h18.58c.28,0,.5.22.5.5s-.22.5-.5.5Z"/>
    <path class="st0" d="M216.69,366.94h-2.53c-.27,0-.49-.23-.5-.5,0-.28.22-.5.5-.5h2.53c.28,0,.5.22.5.5s-.22.5-.5.5Z"/>
    <path class="st0" d="M209.94,366.94h-20.8c-.28,0-.5-.22-.5-.5s.22-.5.5-.5h20.8c.28,0,.5.22.5.5s-.22.5-.5.5Z"/>
    <path class="st0" d="M198.13,373.05h-8.56c-.28,0-.5-.22-.5-.5s.22-.5.5-.5h8.56c.28,0,.5.22.5.5s-.22.5-.5.5Z"/>
    <path class="st1" d="M272.33,357.11c-1.79,6.68-1.79,13.72,0,20.4h41.94s-4.48-12.94,0-20.4h-41.94Z"/>
    <path class="st0" d="M314.27,378h-41.94c-.23,0-.42-.16-.48-.38-1.8-6.78-1.8-13.9,0-20.68.07-.2.26-.34.47-.34h41.94c.18,0,.34.1.43.25.09.16.09.35,0,.51-4.31,7.17,0,19.84,0,20,.05.16.03.33-.07.46-.09.11-.21.17-.35.18ZM272.72,377h40.86c-.83-2.69-3.54-12.69-.16-19.4h-40.71c-1.6,6.37-1.6,13.03.01,19.4Z"/>
    <g class="st4">
      <g class="st5">
        <path d="M272.33,357.11c-1.79,6.68-1.79,13.72,0,20.4h41.94s-4.48-12.94,0-20.4h-41.94Z"/>
        <path class="st0" d="M314.27,378h-41.94c-.23,0-.42-.16-.48-.38-1.8-6.78-1.8-13.9,0-20.68.07-.2.26-.34.47-.34h41.94c.18,0,.34.1.43.25.09.16.09.35,0,.51-4.31,7.17,0,19.84,0,20,.05.16.03.33-.07.46-.09.11-.21.17-.35.18ZM272.72,377h40.86c-.83-2.69-3.54-12.69-.16-19.4h-40.71c-1.6,6.37-1.6,13.03.01,19.4Z"/>
      </g>
    </g>
    <path class="st0" d="M188.9,374v-14.78c0-.76.61-1.37,1.37-1.37h125.73c.55,0,1-.45,1-1h0c0-.55-.45-1-1-1h-129.13c-.76,0-1.37.61-1.37,1.37v18.92c0,1.22.99,2.21,2.21,2.21h128.29c.55,0,1-.45,1-1h0c0-.55-.45-1-1-1h-124.89c-1.22,0-2.21-.99-2.21-2.21,0-.05,0-.1,0-.14Z"/>
    <path class="st0" d="M316,378.78h-128.29c-1.5,0-2.71-1.21-2.71-2.71v-18.92c0-1.03.84-1.87,1.87-1.87h129.13c.85-.07,1.59.56,1.66,1.41.07.85-.56,1.59-1.41,1.66-.08,0-.17,0-.25,0h-125.73c-.48,0-.87.39-.87.87v14.78c0,.94.77,1.7,1.71,1.71h124.89c.85-.07,1.59.56,1.66,1.41.07.85-.56,1.59-1.41,1.66-.08,0-.17,0-.25,0ZM186.91,356.28c-.48,0-.87.39-.87.87v18.92c0,.94.77,1.7,1.71,1.71h128.25c.3.04.57-.17.61-.46.04-.3-.17-.57-.46-.61-.05,0-.1,0-.15,0h-124.89c-1.5,0-2.71-1.21-2.71-2.71v-14.78c0-1.03.84-1.87,1.87-1.87h125.73c.3.04.57-.17.61-.46.04-.3-.17-.57-.46-.61-.05,0-.1,0-.15,0h-129.09Z"/>
    <path class="st1" d="M189,398.62c.74-2.49,3.46-12.76.1-19.34h121.66v19.34h-121.76Z"/>
    <path class="st0" d="M310.75,399.12h-121.75c-.16,0-.3-.08-.4-.2-.1-.13-.13-.3-.08-.45.6-2,3.45-12.47.13-19-.09-.15-.09-.34,0-.49.09-.15.25-.24.43-.24h121.67c.28,0,.5.22.5.5v19.34c.02.28-.18.52-.46.54-.01,0-.03,0-.04,0ZM189.66,398.12h120.59v-18.34h-120.36c2.68,6.22.73,14.91-.23,18.34Z"/>
    <path class="st0" d="M261.63,384.06h-18.55c-.28,0-.5-.22-.5-.5s.22-.5.5-.5h18.55c.28,0,.5.22.5.5s-.22.5-.5.5Z"/>
    <path class="st0" d="M236.89,390h-2.53c-.28,0-.5-.22-.5-.5s.22-.5.5-.5h2.53c.28,0,.5.22.5.5s-.22.5-.5.5Z"/>
    <path class="st0" d="M261.92,390h-20.81c-.28,0-.5-.22-.5-.5s.22-.5.5-.5h20.81c.27,0,.49.23.5.5,0,.28-.22.5-.5.5Z"/>
    <path class="st0" d="M261.48,396.08h-8.56c-.28,0-.5-.22-.5-.5s.22-.5.5-.5h8.56c.28,0,.5.22.5.5s-.22.5-.5.5Z"/>
    <path class="st0" d="M262.32,396.67v-14.78c0-.76-.61-1.37-1.37-1.37h-74.41c-.55,0-1-.45-1-1h0c0-.55.45-1,1-1h129.09c.76,0,1.37.61,1.37,1.37v18.92c0,1.22-.99,2.21-2.21,2.21h-128.25c-.55,0-1-.45-1-1h0c0-.55.45-1,1-1h73.57c1.22,0,2.21-.98,2.21-2.21,0-.05,0-.1,0-.14Z"/>
    <path class="st0" d="M314.79,401.45h-128.25c-.85.07-1.59-.56-1.66-1.41-.07-.85.56-1.59,1.41-1.66.08,0,.17,0,.25,0h73.57c.94,0,1.7-.77,1.71-1.71v-14.78c.01-.47-.35-.86-.82-.89h-74.46c-.85.07-1.59-.56-1.66-1.41-.07-.85.56-1.59,1.41-1.66.08,0,.17,0,.25,0h129.09c1.03,0,1.87.84,1.87,1.87v18.92c0,1.5-1.21,2.72-2.71,2.73h0ZM186.54,399.38c-.3-.04-.57.17-.61.46-.04.3.17.57.46.61.05,0,.1,0,.15,0h128.25c.94,0,1.7-.77,1.71-1.71v-18.92c0-.48-.39-.87-.87-.87h-129.09c-.3-.04-.57.17-.61.46-.04.3.17.57.46.61.05,0,.1,0,.15,0h74.46c1.03,0,1.87.84,1.87,1.87v14.78c0,1.49-1.22,2.7-2.71,2.71h-73.62Z"/>
    <path class="st1" d="M189,421.28c.74-2.48,3.46-12.75.1-19.33h121.66v19.33h-121.76Z"/>
    <path class="st0" d="M310.75,421.78h-121.75c-.16,0-.31-.07-.4-.2-.1-.13-.13-.29-.08-.44.6-2,3.45-12.48.13-19-.09-.15-.09-.34,0-.49.09-.15.25-.24.43-.24h121.67c.28,0,.5.22.5.5v19.33c.02.28-.18.52-.46.54-.01,0-.03,0-.04,0ZM189.66,420.78h120.59v-18.33h-120.36c2.68,6.2.73,14.9-.23,18.33Z"/>
    <path class="st0" d="M261.58,406.86h-18.58c-.28,0-.5-.22-.5-.5s.22-.5.5-.5h18.56c.27,0,.49.23.5.5,0,.27-.21.49-.48.5Z"/>
    <path class="st0" d="M236.83,412.77h-2.53c-.28,0-.5-.22-.5-.5s.22-.5.5-.5h2.53c.28,0,.5.22.5.5s-.22.5-.5.5Z"/>
    <path class="st0" d="M261.86,412.77h-20.81c-.28,0-.5-.22-.5-.5s.22-.5.5-.5h20.81c.28,0,.5.22.5.5s-.22.5-.5.5h0Z"/>
    <path class="st0" d="M261.42,418.89h-8.56c-.28,0-.5-.22-.5-.5s.22-.5.5-.5h8.56c.28,0,.5.22.5.5s-.22.5-.5.5Z"/>
    <path class="st6" d="M262.32,419.33v-14.77c0-.76-.61-1.37-1.37-1.37h-74.41c-.55,0-1-.45-1-1h0c0-.55.45-1,1-1h129.09c.76,0,1.37.61,1.37,1.37v18.84c0,1.22-.98,2.21-2.2,2.22,0,0,0,0-.01,0h-128.25c-.55,0-1-.45-1-1h0c0-.55.45-1,1-1h73.57c1.23,0,2.22-1,2.21-2.23,0-.02,0-.04,0-.06Z"/>
    <path class="st0" d="M314.79,424.12h-128.25c-.85.07-1.59-.56-1.66-1.41-.07-.85.56-1.59,1.41-1.66.08,0,.17,0,.25,0h73.57c.95,0,1.71-.77,1.71-1.72v-14.77c0-.48-.39-.87-.87-.87h-74.41c-.85.07-1.59-.56-1.66-1.41-.07-.85.56-1.59,1.41-1.66.08,0,.17,0,.25,0h129.09c1.03,0,1.87.84,1.87,1.87v18.91c0,1.5-1.21,2.71-2.71,2.72ZM186.54,422.05c-.3-.04-.57.17-.61.46-.04.3.17.57.46.61.05,0,.1,0,.15,0h128.25c.95,0,1.71-.77,1.71-1.72v-18.91c0-.48-.39-.87-.87-.87h-129.09c-.3-.04-.57.17-.61.46-.04.3.17.57.46.61.05,0,.1,0,.15,0h74.46c1.03,0,1.87.84,1.87,1.87v14.77c0,1.5-1.21,2.71-2.71,2.72h-73.62Z"/>
    <path class="st1" d="M189,353.28c.74-2.48,3.46-12.75.1-19.33h121.66v19.33h-121.76Z"/>
    <path class="st0" d="M310.75,353.78h-121.75c-.16,0-.31-.07-.4-.2-.1-.13-.13-.29-.08-.44.6-2,3.45-12.48.13-19-.09-.15-.09-.34,0-.49.09-.15.25-.24.43-.24h121.67c.28,0,.5.22.5.5v19.33c.02.28-.18.52-.46.54-.01,0-.03,0-.04,0ZM189.66,352.78h120.59v-18.33h-120.36c2.68,6.2.73,14.9-.23,18.33Z"/>
    <path class="st0" d="M261.9,338.78h-18.56c-.28,0-.5-.22-.5-.5s.22-.5.5-.5h18.56c.28,0,.5.22.5.5s-.22.5-.5.5Z"/>
    <path class="st0" d="M237.15,344.68h-2.53c-.28,0-.5-.22-.5-.5,0-.27.23-.49.5-.5h2.53c.28,0,.5.22.5.5s-.22.5-.5.5Z"/>
    <path class="st0" d="M262.18,344.68h-20.81c-.28,0-.5-.22-.5-.5,0-.27.23-.49.5-.5h20.81c.28,0,.5.22.5.5s-.22.5-.5.5Z"/>
    <path class="st0" d="M261.75,350.8h-8.57c-.28,0-.5-.22-.5-.5,0-.27.23-.49.5-.5h8.57c.27,0,.49.23.5.5,0,.28-.22.5-.5.5Z"/>
    <path class="st6" d="M262.32,351.33v-14.77c0-.76-.61-1.37-1.37-1.37h-74.41c-.55,0-1-.45-1-1h0c0-.55.45-1,1-1h129.09c.76,0,1.37.61,1.37,1.37v18.84c0,1.22-.98,2.21-2.2,2.22,0,0,0,0-.01,0h-128.25c-.55,0-1-.45-1-1h0c0-.55.45-1,1-1h73.57c1.23,0,2.22-1,2.21-2.23,0-.02,0-.04,0-.06Z"/>
    <path class="st0" d="M314.79,356.12h-128.25c-.85.07-1.59-.56-1.66-1.41-.07-.85.56-1.59,1.41-1.66.08,0,.17,0,.25,0h73.57c.95,0,1.71-.77,1.71-1.72v-14.77c0-.48-.39-.87-.87-.87h-74.41c-.85.07-1.59-.56-1.66-1.41-.07-.85.56-1.59,1.41-1.66.08,0,.17,0,.25,0h129.09c1.03,0,1.87.84,1.87,1.87v18.91c0,1.5-1.21,2.71-2.71,2.72ZM186.54,354.05c-.3-.04-.57.17-.61.46-.04.3.17.57.46.61.05,0,.1,0,.15,0h128.25c.95,0,1.71-.77,1.71-1.72v-18.91c0-.48-.39-.87-.87-.87h-129.09c-.3-.04-.57.17-.61.46-.04.3.17.57.46.61.05,0,.1,0,.15,0h74.46c1.03,0,1.87.84,1.87,1.87v14.77c0,1.5-1.21,2.71-2.71,2.72h-73.62Z"/>
    <path class="st0" d="M233.67,263.28s-10.34.34-25.34-3.33-27.33-1-29.66,13.33,36,29,62.66,34.34c26.66,5.34,53.34,7.66,66.34,2s12.66-26,7.66-35.34-21.66-10.66-30.33-9.28-51.33-1.72-51.33-1.72Z"/>
    <path class="st0" d="M286.07,313.4c-15.33,0-33.12-2.95-44.83-5.29-26.85-5.37-65.46-20.18-63.07-34.91.9-5.51,3.31-9.6,7.15-12.14,5.23-3.47,13.23-4,23.13-1.6,14.75,3.61,25.1,3.33,25.2,3.32h0c.43,0,42.71,3,51.22,1.68,7.75-1.2,25.49-.42,30.85,9.59,3.12,5.82,4.69,16.28,1.66,25-1.83,5.26-5.14,9.07-9.56,11-5.5,2.44-13.25,3.35-21.75,3.35ZM197.31,259c-4.64,0-8.51,1-11.44,2.91-3.6,2.39-5.86,6.25-6.71,11.47-2.19,13.47,34.76,28.26,62.27,33.77,18.1,3.62,50.75,8.69,66,2,4.16-1.82,7.28-5.41,9-10.41,2.91-8.38,1.35-18.74-1.59-24.23-5.11-9.54-22.3-10.23-29.81-9.08-8.59,1.33-49.36-1.51-51.42-1.66-.61,0-10.92.21-25.45-3.34-3.55-.91-7.19-1.39-10.85-1.43Z"/>
    <path class="st0" d="M301,200.62c-1.43-9.61-2.86-19.22-4.29-28.82-1.33-8.92-1.89-18.47-4.21-27.18-3-13-7.5-20-21-22.5s-28.5,12-28.5,18.5,4.64,21.17-2.5,44.25c-2.44,7.89,7,9,18.41,5.51l42.09,10.24Z"/>
    <path class="st0" d="M301,201.12h-.12l-42-10.2c-8.5,2.59-15.21,2.49-18-.26-1.41-1.41-1.73-3.41-.95-5.92,5.53-17.88,3.94-30.81,3-38.54-.28-1.84-.45-3.7-.51-5.56,0-3.15,3.25-8,8.09-12,3.22-2.67,11.7-8.71,21-7,14.08,2.6,18.51,10.36,21.4,22.87,1.48,6.17,2.52,12.43,3.12,18.75.34,2.8.68,5.7,1.1,8.48.77,5.19,1.55,10.38,2.32,15.57l2,13.24c.03.17-.03.33-.15.45-.09.07-.19.11-.3.12ZM258.91,189.88h.12l41.37,10.12-1.86-12.51c-.78-5.19-1.55-10.38-2.32-15.58-.42-2.79-.76-5.69-1.1-8.5-.6-6.27-1.63-12.49-3.1-18.62-2.87-12.42-7-19.62-20.61-22.14-6.16-1.14-13.7,1.39-20.18,6.78-4.55,3.79-7.73,8.4-7.73,11.23.07,1.82.23,3.64.5,5.44,1,7.81,2.57,20.87-3,38.95-.66,2.14-.43,3.79.7,4.92,2.45,2.46,9,2.45,17.08,0,.04-.04.08-.07.13-.09h0Z"/>
    <path class="st6" d="M264.75,180.62s-16.5,2.25-24.25,4.25-10.5,4.84-13.29,10.13-6.94,24.94-10.94,33.19-11.27,10.43-12.52,19.18,5.75,11.75,11,12.75c3.89.66,7.81,1.08,11.75,1.25,0,0,8.5,20,25,21.5s28.75-10,36.25-14.25,8-14,8.25-25.25,6.9-36.55,5.15-43.55-4.37-8.15-15.73-14c-4.86-2.47-13.67-5.7-20.67-5.2Z"/>
    <path class="st0" d="M254.47,283.5c-1,0-2,0-3-.13-15.51-1.41-24.15-19-25.29-21.52-3.86-.17-7.7-.59-11.51-1.24-4.84-.92-12.75-3.88-11.41-13.31.75-5.2,3.55-8.16,6.51-11.3,2.44-2.34,4.49-5.07,6.06-8.07,2.12-4.37,4.33-12.13,6.29-19,1.72-6,3.35-11.73,4.65-14.22,2.75-5.24,5.61-8.28,13.62-10.35,7.68-2,24.14-4.24,24.3-4.26h0c6.87-.5,15.59,2.54,20.94,5.28l1,.51c10.43,5.34,13.24,6.78,15,13.79,1,4.09-.66,13.74-2.43,24-1.28,7.33-2.59,14.9-2.7,19.72-.23,10.38-.47,21.12-8.5,25.67-1.51.85-3.18,2-5.12,3.29-7.05,4.75-16.51,11.14-28.41,11.14ZM264.8,181.11c-.6.09-16.65,2.3-24.17,4.24-7.69,2-10.32,4.76-13,9.84-1.26,2.4-2.87,8.05-4.58,14-2,6.89-4.19,14.7-6.35,19.15-1.62,3.09-3.72,5.9-6.23,8.32-3,3.15-5.55,5.86-6.24,10.75-1.17,8.18,5.11,11.14,10.59,12.19,3.86.66,7.76,1.07,11.68,1.24.19,0,.36.12.44.3.08.2,8.58,19.74,24.58,21.2,13,1.18,23.27-5.78,30.78-10.85,2-1.33,3.64-2.47,5.18-3.34,7-4,7.73-12.79,8-24.82.11-4.89,1.43-12.51,2.71-19.87,1.68-9.67,3.42-19.67,2.45-23.55-1.64-6.57-4.11-7.83-14.47-13.14l-1-.51c-5.17-2.65-13.69-5.62-20.37-5.15Z"/>
    <path class="st1" d="M212.88,233.31c-3.81,4.56-8.19,7.45-9.13,14.06-.22,1.32-.22,2.68,0,4,1,1.54,4.16,5.19,10.26,3.45,7.64-2.19,6.82-12.83,2.18-19.38-.74-1.16-1.95-1.94-3.31-2.13Z"/>
    <path class="st0" d="M210.93,255.74c-3.05,0-5.9-1.56-7.55-4.13-.04-.06-.07-.12-.08-.19-.24-1.36-.25-2.75-.05-4.12.75-5.2,3.55-8.17,6.52-11.3.9-1,1.83-1.94,2.72-3,.11-.14.28-.2.45-.18,1.51.19,2.86,1.03,3.7,2.3,3.25,4.59,4.48,10.75,3,15-.82,2.53-2.87,4.47-5.44,5.16-1.06.31-2.16.46-3.27.46ZM204.27,251.14c1,1.56,4,4.76,9.64,3.16,2.26-.59,4.06-2.3,4.77-4.53,1.39-4,.22-9.74-2.85-14.08-.64-.96-1.62-1.62-2.75-1.85-.85,1-1.73,1.94-2.59,2.84-3,3.15-5.55,5.87-6.24,10.76-.19,1.23-.19,2.48.02,3.7h0Z"/>
    <path class="st1" d="M263.58,214.38c7-3.2,10.78-8.73,14-19.22,1.18-3.78,2.13-7.63,2.85-11.53-4.75-1.82-10.66-3.37-15.66-3,0,0-7.12,1-14.21,2.2-.59,3.68-2,14.16-.35,22,2.02,9.55,6.38,12.75,13.37,9.55Z"/>
    <path class="st0" d="M258.82,216.08c-1.09.01-2.17-.23-3.14-.72-2.83-1.42-4.79-4.85-6-10.48-1.65-7.79-.31-18.07.35-22.14.03-.21.19-.37.4-.41,7-1.22,14.16-2.2,14.23-2.21,5.85-.41,12.48,1.73,15.91,3,.22.09.35.32.31.56-.73,3.93-1.69,7.81-2.88,11.63-3.33,10.88-7.32,16.35-14.25,19.53h0c-1.54.76-3.22,1.18-4.93,1.24ZM251,183.25c-.66,4.23-1.87,14-.3,21.42,1.11,5.24,2.94,8.54,5.45,9.8,1.95,1,4.32.8,7.25-.54,6.63-3,10.47-8.35,13.7-18.91,1.12-3.62,2.03-7.3,2.74-11.02-3.44-1.29-9.62-3.22-15-2.83-.09-.05-6.98.89-13.84,2.08ZM263.6,214.38h0Z"/>
    <path class="st0" d="M230.5,251.37c-.06.01-.13.01-.19,0-.25-.1-.38-.38-.28-.64,0,0,0,0,0-.01.05-.12,5-12.45,5-15.81,0-2.36-1.08-4.75-2.33-7.52-.55-1.21-1.11-2.45-1.64-3.8-1.73-4.46,2.2-11.43,2.74-12.35.24-1.81,2.93-21.89,5.53-25.64.15-.22.46-.28.68-.13,0,0,0,0,0,0,.22.16.28.46.13.69-2.52,3.64-5.35,25.09-5.37,25.3-.01.07-.04.13-.07.19,0,.08-4.35,7.35-2.71,11.57.51,1.32,1.07,2.55,1.61,3.75,1.3,2.87,2.42,5.36,2.42,7.93,0,3.55-4.83,15.67-5,16.18-.09.21-.32.33-.54.28Z"/>
    <path class="st1" d="M206.75,226.37l3.75-4c2.47,1.35,5.06,2.43,7.75,3.25,10.13,3.37,14.75,5.5,15.25,11.5,0,0,6.75-4.25,13.5-3.5s12.75,3.5,14.75,3.75l2,.25.5,3.5-3.75,19.75-29.25-3-20-17.5-4.5-14Z"/>
    <path class="st0" d="M260.5,261.37h-.05l-29.25-3c-.1,0-.2-.05-.28-.12l-20-17.5c-.07-.06-.12-.13-.15-.22l-4.5-14c-.05-.18,0-.37.12-.5l3.75-4c.16-.17.42-.2.62-.08,2.43,1.32,5,2.4,7.65,3.2,10,3.33,14.66,5.47,15.5,11.16,1.9-1.06,7.47-3.81,13.15-3.18,3.91.53,7.76,1.47,11.48,2.81,1.07.39,2.16.7,3.27.94l2,.25c.23.03.41.2.44.43l.5,3.5c0,.05,0,.11,0,.16l-3.75,19.78c-.06.23-.27.38-.5.37ZM231.5,257.37l28.63,2.93,3.65-19.22-.43-3-1.62-.21c-1.18-.24-2.34-.57-3.46-1-3.66-1.32-7.44-2.25-11.29-2.77-6.5-.73-13.11,3.39-13.17,3.43-.15.09-.34.09-.49,0-.16-.07-.26-.23-.28-.4-.47-5.68-4.91-7.74-14.91-11.07-2.58-.81-5.09-1.85-7.5-3.09l-3.27,3.49,4.36,13.59,19.78,17.32Z"/>
    <polygon class="st0" points="205.5 225.62 229.25 245.87 231.75 241.87 265.75 241.12 263.75 263.12 231.5 261.62 229.25 263.12 211.75 250.12 205.5 225.62"/>
    <path class="st0" d="M263.75,263.62h0l-32.09-1.5-2.11,1.41c-.17.12-.41.12-.58,0l-17.5-13c-.09-.07-.16-.17-.18-.28l-6.29-24.51c-.06-.21.03-.44.22-.55.18-.12.42-.1.58.05l23.31,19.87,2.2-3.51c.09-.14.24-.23.41-.23l34-.75c.14,0,.28.06.38.16.09.1.14.24.13.38l-2,22c-.02.25-.23.45-.48.46ZM231.5,261.12h0l31.77,1.48,1.91-21-33.17.73-2.36,3.77c-.07.12-.2.21-.34.23-.14.02-.29-.02-.4-.11l-22.54-19.22,5.82,22.8,17.08,12.69,1.95-1.31c.09-.04.18-.07.28-.06Z"/>
    <path class="st1" d="M288.25,218.87l-.5,28.5s-14.75,8.25-23,10.5c-4.55,1.36-9.26,2.12-14,2.25-.75,0-4-5.25-5.75-7s-3.16-1.78-6.36-3.38c-4.46-2.23-6.39-2.62-6.14-1.62s.5,2,2.75,3.25,3.75,2.25,3.75,2.25l.5,1s-5.5-.75-7.75-1.25-8-4.5-8-4.5c0,0-2.45-.15-.7,2.85s3.45,3.15,3.45,3.15c.34,1.8,1.21,3.45,2.5,4.75,1.11.98,2.28,1.9,3.5,2.75,0,0-4.75-1.25-4.25,0s3.5,1.75,7.25,3.5,12.25,2,17,2.75c8.62,1.11,17.34,1.28,26,.5,10-1,25-7.75,27.75-10s1-27.5.25-33.25-2.25-16.5-3.25-21.5-5-12-7.5-13.5-7,3.25-7.5,28Z"/>
    <path class="st0" d="M268,270.1c-5.21.03-10.41-.3-15.57-1-1.44-.23-3.25-.41-5.17-.6-4.35-.44-9.29-.94-12-2.19-1.36-.63-2.6-1.09-3.7-1.5-2.05-.77-3.4-1.27-3.8-2.27-.14-.28-.09-.62.12-.86.37-.43,1.35-.44,2.46-.28-.5-.4-1.07-.87-1.7-1.42-1.31-1.28-2.22-2.92-2.6-4.71-.66-.22-2.06-.93-3.45-3.31-.73-1.26-.89-2.19-.48-2.86.38-.51,1-.79,1.64-.74.09,0,.19.03.26.09.05,0,5.69,3.95,7.82,4.42,1.64.37,5.1.87,6.77,1.11h0c-.38-.25-1.74-1.12-3.6-2.16-2.44-1.35-2.74-2.53-3-3.56-.12-.33-.01-.71.26-.93.33-.26,1-.81,6.58,2,1.09.55,2,.91,2.74,1.22,1.4.46,2.68,1.23,3.75,2.25,1.04,1.16,2.01,2.39,2.9,3.67.76,1.15,1.63,2.22,2.6,3.2,4.67-.17,9.29-.92,13.77-2.25,7.51-2,20.66-9.22,22.63-10.31l.5-28.21h0c.33-16.14,2.51-26.51,6-28.43.7-.43,1.57-.43,2.27,0,2.69,1.61,6.74,8.85,7.73,13.83s2.52,15.92,3.26,21.53c.33,2.55,2.88,31-.43,33.7-2.87,2.35-18.09,9.12-28,10.11-3.56.36-7.14.46-10.56.46ZM228.81,262.33c.38.52,1.61,1,3.14,1.55,1.12.41,2.38.88,3.77,1.53,2.52,1.18,7.37,1.67,11.64,2.1,1.93.2,3.75.38,5.23.61,8.58,1.11,17.25,1.28,25.87.5,9.76-1,24.68-7.6,27.48-9.89,2.35-1.92,1-25.42.07-32.8-.73-5.6-2.23-16.42-3.24-21.47s-5-11.81-7.27-13.16c-.39-.24-.88-.24-1.27,0-1.16.65-5,4.54-5.47,27.58l-.5,28.5c0,.18-.1.34-.26.42-.14.09-14.89,8.31-23.11,10.55-4.59,1.36-9.34,2.13-14.13,2.27-.59,0-1.2-.73-3.3-3.6-.86-1.24-1.8-2.42-2.8-3.55-.98-.91-2.15-1.6-3.43-2-.79-.33-1.68-.69-2.81-1.25-3.79-1.9-5-2.08-5.4-2.1.24.94.52,1.75,2.48,2.84,2.24,1.25,3.77,2.26,3.79,2.27.07.05.13.12.17.19l.5,1c.09.16.09.36,0,.52-.11.15-.29.23-.48.2-.22,0-5.54-.76-7.79-1.25s-7.14-3.87-8-4.49c-.23,0-.46.1-.61.27-.09.14-.21.61.49,1.82,1.57,2.69,3.06,2.91,3.07,2.91.22.03.4.19.44.41.32,1.69,1.14,3.24,2.34,4.46,1.09.97,2.25,1.88,3.45,2.71.23.15.3.46.15.69-.12.18-.35.27-.56.21-1.19-.37-2.42-.55-3.66-.55h0ZM287.76,247.33h0Z"/>
    <path class="st1" d="M226.5,254.87s5.95,3.53,10.41,4.52"/>
    <path class="st0" d="M236.91,259.88h-.11c-4.48-1-10.31-4.43-10.55-4.57-.24-.14-.32-.45-.18-.69.14-.23.44-.31.67-.18,0,0,0,0,0,0,.06,0,5.94,3.5,10.26,4.46.28.03.48.27.45.55-.03.28-.27.48-.55.45v-.03Z"/>
    <path class="st1" d="M232.5,262.37c1.89.71,3.88,1.12,5.89,1.22"/>
    <path class="st0" d="M238.39,264.09c-2.08-.1-4.13-.52-6.07-1.26-.26-.1-.38-.38-.29-.64.1-.26.39-.39.64-.29,0,0,0,0,0,0,1.83.68,3.76,1.09,5.71,1.19.28,0,.5.22.5.5s-.22.5-.5.5h0Z"/>
    <path class="st1" d="M227.26,257.41c3.14,2.21,6.66,3.8,10.39,4.7"/>
    <path class="st0" d="M237.65,262.61h-.12c-3.78-.92-7.36-2.55-10.53-4.81-.22-.17-.26-.48-.09-.7.17-.22.48-.26.7-.09,3.08,2.16,6.54,3.72,10.2,4.61.26.06.43.32.37.58,0,0,0,.01,0,.02-.05.24-.28.41-.53.39Z"/>
    <path class="st6" d="M281.48,268.68c9.77-1.81,22.28-7.53,24.77-9.56,2.75-2.25,1-27.5.25-33.25s-2.25-16.5-3.25-21.5-5-12-7.5-13.5-7,3.25-7.5,28l-.5,28.5s-5.73,3.2-12.05,6.16c2.44,2.65,6.55,8.25,5.78,15.15Z"/>
    <path class="st0" d="M281.48,269.18c-.12,0-.24-.05-.34-.13-.11-.11-.17-.26-.15-.42.74-6.69-3.23-12.12-5.66-14.76-.1-.12-.15-.28-.12-.43.03-.16.13-.29.28-.36,5.49-2.57,10.59-5.36,11.76-6l.5-28.21c.33-16.14,2.51-26.51,6-28.43.7-.43,1.57-.43,2.27,0,2.69,1.61,6.74,8.85,7.73,13.83s2.52,15.92,3.26,21.53c.33,2.55,2.88,31-.43,33.7-2.66,2.18-15.33,7.88-25,9.67h-.1ZM276.48,253.7c2.47,2.82,6,8,5.52,14.37,10-2,21.7-7.55,23.89-9.34,2.35-1.92,1-25.42.07-32.8-.73-5.6-2.23-16.42-3.24-21.47s-5-11.81-7.27-13.16c-.39-.24-.88-.24-1.27,0-1.16.65-5,4.54-5.47,27.58l-.5,28.5c0,.18-.1.34-.26.42-.01.03-5.41,3.05-11.43,5.9h-.04Z"/>
    <path class="st1" d="M255.88,177.65s-2.24,13-2.46,21,5.81,16.09,14.3,5.81,7.15-27.27,7.15-27.27c-5.99,2.81-12.88,2.97-18.99.46Z"/>
    <path class="st0" d="M260.13,209.83c-.65,0-1.29-.12-1.9-.35-3.22-1.2-5.45-5.76-5.31-10.83.22-8,2.44-21,2.46-21.09.03-.15.12-.27.25-.35.14-.07.3-.07.44,0,5.98,2.44,12.71,2.29,18.57-.43.24-.13.55-.03.67.21.03.06.05.12.06.19.06.7,1.26,17.31-7.26,27.63-3.24,3.9-5.95,5.02-7.98,5.02ZM256.27,178.34c-.44,2.66-2.16,13.4-2.35,20.33-.13,4.66,1.83,8.81,4.66,9.88,2.56,1,5.59-.56,8.76-4.4,7.27-8.81,7.2-22.82,7.07-26.17-5.77,2.48-12.28,2.61-18.14.36h0Z"/>
    <path class="st0" d="M256.32,194.47h-.08c-.27-.05-.46-.3-.41-.58,0,0,0,0,0,0,.65-3.7.22-10.54.22-10.61-.02-.27.18-.51.45-.53,0,0,0,0,.01,0,.27-.01.51.2.53.47,0,.28.45,7-.23,10.84-.04.24-.25.41-.49.41Z"/>
    <path class="st1" d="M206.17,244.71c-.35,1.15-.22,2.39.38,3.43,1,1.65,6.35,4.82,6.35,3.55s-2.67-3-2.8-3.93c-.18-.76-.48-1.49-.88-2.16,0,0-1.91-2.41-3.05-.89Z"/>
    <path class="st0" d="M212.56,252.48c-1.55,0-5.53-2.6-6.43-4.08-.68-1.16-.84-2.56-.43-3.85.02-.05.04-.1.07-.14.29-.43.78-.69,1.3-.7h0c1.23,0,2.39,1.42,2.52,1.58.46.74.8,1.55,1,2.4.26.47.6.9,1,1.27.86.89,1.76,1.81,1.76,2.73.01.36-.23.67-.57.76-.07.02-.15.03-.22.03ZM206.62,245c-.28.99-.15,2.04.36,2.93.81,1.32,4.31,3.41,5.37,3.6-.36-.68-.84-1.3-1.42-1.82-.6-.48-1.06-1.11-1.32-1.83-.17-.71-.44-1.38-.82-2-.42-.56-1.03-.97-1.71-1.15-.19,0-.36.11-.46.27Z"/>
    <path class="st1" d="M203.61,237.3s-.24,3.71.39,5.44,7.32,6.35,9,5.47-3.57-5.47-4.82-6.91c-1.43-1.44-2.95-2.78-4.57-4Z"/>
    <path class="st0" d="M212.49,248.82c-.61-.03-1.2-.17-1.76-.41-2.53-1-6.64-3.95-7.2-5.5-.66-1.81-.42-5.49-.41-5.64,0-.19.12-.35.29-.43.17-.07.36-.05.51.06,1.65,1.26,3.22,2.63,4.68,4.1.26.3.7.74,1.21,1.25,2.42,2.42,4.25,4.37,4.05,5.62-.04.36-.27.67-.6.81-.24.11-.51.16-.77.14ZM204.08,238.29c-.09,1.44.04,2.88.39,4.28.39,1.06,4,3.88,6.63,4.91,1.19.47,1.61.33,1.71.28.2-.92-2.44-3.56-3.7-4.83-.54-.53-1-1-1.27-1.3-1.17-1.2-2.43-2.32-3.76-3.34h0Z"/>
    <path class="st1" d="M203.63,232.79s-.5,3.68,0,5.45,6.85,6.85,8.63,6.09-3.17-5.71-4.31-7.23c-1.34-1.54-2.78-2.98-4.32-4.31Z"/>
    <path class="st0" d="M211.83,244.91c-.66-.04-1.3-.23-1.88-.54-2.46-1.17-6.35-4.41-6.8-6-.53-1.85,0-5.5,0-5.66.02-.18.15-.34.32-.4.17-.06.36-.03.5.09,1.56,1.36,3.03,2.83,4.39,4.39.23.32.64.79,1.12,1.34,2.24,2.58,3.92,4.65,3.64,5.89-.08.35-.32.63-.65.76-.2.09-.42.13-.64.13ZM204,233.81c-.19,1.43-.16,2.88.09,4.3.31,1.08,3.73,4.15,6.27,5.36,1.16.55,1.58.45,1.68.4.27-.91-2.17-3.72-3.35-5.08-.49-.57-.92-1.06-1.16-1.39-1.09-1.28-2.27-2.48-3.53-3.59Z"/>
    <path class="st1" d="M206.68,228.6s-3.81-2-4.44.51,2.28,5.2,4.95,7.36,3.8,1.77,3.8-.26-4.31-7.61-4.31-7.61Z"/>
    <path class="st0" d="M209.94,238.42c-1.16-.18-2.24-.73-3.07-1.56-3.06-2.48-5.8-5.15-5.12-7.87.12-.64.55-1.18,1.15-1.45,1.51-.67,3.76.49,4,.62.07.03.12.08.16.14.46.58,4.42,5.78,4.42,7.91,0,1.09-.31,1.78-.91,2.07-.2.1-.41.14-.63.14ZM203.94,228.33c-.23,0-.46.04-.67.12-.31.15-.53.44-.59.78-.54,2.19,2.11,4.69,4.78,6.85,1.85,1.49,2.49,1.37,2.65,1.3s.34-.53.34-1.17c0-1.49-2.92-5.63-4.14-7.21-.72-.38-1.5-.6-2.31-.67h-.06Z"/>
    <path class="st1" d="M206.33,308s-5,2.67-14.33,3-17-4.67-12.67-8.67c4.6-4.2,10.82-6.15,17-5.33,6,1,15,3.33,15,3.33l-5,7.67Z"/>
    <path class="st0" d="M191.13,311.47c-6.25,0-12-2.33-13.28-5.48-.57-1.46-.1-3.12,1.14-4.07,4.71-4.32,11.1-6.32,17.43-5.46,6,1,15,3.32,15,3.34.15.04.28.15.34.3.06.15.04.32-.05.46l-5,7.66c-.04.07-.11.13-.18.17-.21.11-5.21,2.73-14.55,3.06l-.85.02ZM193.47,297.22c-5.11.06-10.02,1.99-13.8,5.43-.96.67-1.33,1.91-.89,3,1,2.52,6.38,5.09,13.2,4.84,8.35-.3,13.23-2.51,14-2.89l4.54-7c-2.2-.55-9.31-2.32-14.28-3.15-.92-.15-1.84-.23-2.77-.23ZM206.33,308h0Z"/>
    <path class="st1" d="M207.67,299.62c.45.05.93.08,1.41.1-3.06-.76-8.61-2.08-12.75-2.77-6.18-.82-12.4,1.13-17,5.33-2.2,2-1.29,4.34,1.36,6.06-.35-2.89,1.3-5.65,4-6.72,5.64-2.62,17.31-2.62,22.98-2Z"/>
    <path class="st0" d="M180.69,308.84c-.1,0-.19-.03-.27-.08-1.73-1.12-2.7-2.43-2.82-3.78-.05-1.18.47-2.32,1.39-3.06,4.71-4.32,11.1-6.32,17.43-5.46,4.14.69,9.79,2,12.78,2.77.25.06.41.3.38.56-.05.25-.27.42-.52.43-.49,0-1-.05-1.45-.11h0c-6-.7-17.36-.57-22.73,2-2.51.99-4.02,3.55-3.69,6.22.02.19-.08.38-.24.48-.08.03-.17.04-.26.03ZM193.47,297.22c-5.11.06-10.02,1.99-13.8,5.43-.7.54-1.09,1.37-1.07,2.25.18.99.75,1.87,1.57,2.44.07-2.73,1.75-5.15,4.28-6.17,4.64-2.19,12.72-2.57,18.53-2.38-2.28-.51-4.69-1-6.73-1.35-.92-.15-1.85-.22-2.78-.22Z"/>
    <path class="st0" d="M310.67,280.28s-10,15-20,21-55.67,6.72-65,6.72h-19.34v-7s30.67-4.38,47.67-14,26-20.33,39.33-24.67,25,3,24.67,21"/>
    <path class="st0" d="M225.67,308.45h-19.34c-.28,0-.5-.22-.5-.5v-7c0-.25.19-.46.43-.49.31,0,30.77-4.44,47.49-13.94,6.27-3.67,12.31-7.73,18.07-12.15,7.27-5.38,13.55-10,21.36-12.56,6.7-2.18,12.95-1.48,17.61,2,5.13,3.8,7.87,10.73,7.71,19.51,0,.27-.2.48-.47.49-.01,0-.03,0-.04,0-.28,0-.5-.23-.49-.51h0c.16-8.44-2.44-15.08-7.31-18.69-4.39-3.25-10.32-3.9-16.7-1.82-7.65,2.49-13.87,7.09-21.08,12.42-5.79,4.44-11.86,8.52-18.16,12.2-15.8,9-43.62,13.43-47.42,14v6.07h18.84c.53,0,53.87-.07,64.74-6.6,9.79-5.87,19.74-20.69,19.84-20.84.15-.23.46-.29.69-.14.23.15.29.45.15.68,0,0,0,0,0,.01-.1.15-10.17,15.16-20.16,21.15-11.1,6.63-64.71,6.71-65.25,6.71Z"/>
    <path class="st1" d="M274.79,306.68c-.28.02-.52-.18-.55-.45-.02-.28.18-.52.46-.55,10.82-1.86,20.86-6.82,28.9-14.29.19-.2.51-.2.71,0,0,0,0,0,0,0,.19.19.2.5,0,.69,0,0,0,0,0,0-8.18,7.6-18.4,12.66-29.41,14.55l-.11.04Z"/>
    <path class="st1" d="M307.69,288.23c-.11,0-.22-.04-.31-.11-.21-.17-.25-.48-.08-.7,1.04-1.24,1.96-2.58,2.75-4,.13-.24.42-.34.67-.22.25.12.35.42.23.67,0,0,0,0,0,0-.82,1.49-1.78,2.9-2.87,4.2-.1.11-.24.17-.39.16Z"/>
    <path class="st1" d="M244,291.62c-.28,0-.5-.22-.5-.5s.22-.5.5-.5c5.7-.38,11.16-2.42,15.71-5.88.2-.18.51-.16.69.04,0,0,0,0,0,0,.18.21.15.53-.06.71-4.71,3.64-10.41,5.77-16.35,6.12Z"/>
    <path class="st0" d="M200.43,266.06l-1.1-.11"/>
    <path class="st0" d="M200.43,266.56h-.05l-1.09-.1c-.27-.03-.48-.27-.46-.54.03-.27.27-.47.54-.46l1.12.11c.28.02.49.25.47.53s-.25.49-.53.47h0Z"/>
    <path class="st1" d="M294.33,309.28c4.99-1.77,10.12-3.1,15.34-4,7-1,12.66,0,14.66,4.34s.67,9.66-6.33,11-19.67-1.34-21-1.34c-1.16-.13-2.29-.47-3.33-1l.66-9Z"/>
    <path class="st0" d="M313.27,321.49c-4.66-.12-9.31-.59-13.9-1.38-1.18-.18-2.11-.33-2.37-.33-1.24-.12-2.44-.46-3.56-1-.18-.09-.29-.28-.27-.48l.66-9c.02-.2.15-.37.33-.44,5.02-1.77,10.19-3.1,15.44-4,8-1.15,13.26.45,15.19,4.62,1.15,2.28,1.18,4.96.09,7.27-.81,1.59-2.65,3.64-6.79,4.43-1.59.25-3.21.35-4.82.31ZM294.19,318c.88.43,1.83.7,2.81.8.85.07,1.69.18,2.52.34,4.24.66,13.06,2,18.39,1,3-.57,5.06-1.92,6.08-3.91.95-2.03.91-4.39-.11-6.39-2.17-4.71-8.89-4.8-14.14-4.05-5.08.86-10.07,2.16-14.93,3.87l-.62,8.34Z"/>
    <path class="st1" d="M316.26,305c2.13.82,6.15,3.07,5.41,8.26-1,7-9.34,7-15,7-.42,0-.84.06-1.24.18,4.2.49,9.09.82,12.57.16,7-1.34,8.33-6.67,6.33-11-1.33-2.84-4.23-4.24-8.07-4.6Z"/>
    <path class="st0" d="M313.26,321.49c-2.64-.03-5.27-.21-7.89-.54-.24-.03-.42-.22-.44-.46-.01-.24.14-.45.37-.52.45-.12.91-.18,1.37-.19,5.72,0,13.56,0,14.5-6.57.68-4.75-2.9-6.88-5.09-7.73-.23-.09-.36-.34-.31-.58.06-.24.28-.4.53-.38,4.31.38,7.17,2,8.49,4.89,1.15,2.28,1.18,4.96.09,7.27-.81,1.59-2.65,3.64-6.79,4.43-1.59.28-3.21.4-4.83.38ZM313.16,320.49c1.59.02,3.18-.1,4.75-.36,3-.57,5.06-1.92,6.08-3.91.95-2.03.91-4.39-.11-6.39-.93-1.89-2.65-3.28-4.7-3.77,2.32,1.65,3.49,4.48,3,7.29-.72,4.9-4.72,6.57-9.02,7.14Z"/>
    <path class="st0" d="M196.67,258.62s-11.34-2-18.67,3.66-6.33,11.67.67,20.34,25,24,64,31c39,7,51,4.66,51,4.66l.66-9c-16.75.06-33.08-5.19-46.66-15-21.83-16-31.56-26.51-47.24-28.22"/>
    <path class="st0" d="M286.9,319.17c-7.23,0-20.88-.85-44.32-5.06-41.29-7.41-58.72-24.27-64.3-31.18-4.43-5.48-6.21-9.55-5.78-13.22.33-2.82,2-5.38,5.19-7.82,7.43-5.74,18.59-3.85,19.06-3.76.26.03.45.27.42.54,0,.01,0,.02,0,.03-.05.27-.3.46-.58.41,0,0,0,0,0,0-.11,0-11.2-1.89-18.27,3.57-2.94,2.27-4.52,4.61-4.82,7.15-.39,3.33,1.38,7.29,5.57,12.47,5.5,6.82,22.73,23.47,63.69,30.83,34.75,6.23,48.13,5,50.45,4.72l.59-8.05c-16.66-.14-32.87-5.41-46.42-15.11-4.94-3.62-9.32-7-13.18-10-13.14-10.14-21.82-16.85-33.81-18.16-.28-.03-.48-.28-.44-.55.03-.28.28-.48.55-.45,12.27,1.34,21,8.11,34.31,18.36,3.86,3,8.23,6.35,13.16,10,13.51,9.69,29.72,14.91,46.35,14.9.14,0,.28.05.38.15.1.1.15.25.14.39l-.66,9c-.02.22-.19.41-.41.45-2.27.33-4.57.46-6.86.39Z"/>
    <path class="st1" d="M192.5,267.12c-.24,0-.45-.17-.49-.41-.05-.27.12-.52.38-.58,0,0,.01,0,.02,0,1.2-.23,2.42-.37,3.64-.44.28-.01.51.2.53.48.01.28-.2.51-.48.52,0,0,0,0,0,0-1.18.06-2.35.2-3.51.42h-.09Z"/>
    <path class="st1" d="M289.5,309.62h0c-.23,0-23.46-.74-49.29-20.61-18-13.82-28.9-20.15-37.74-21.86-.28-.05-.46-.32-.4-.6s.32-.46.6-.4c9,1.74,20.06,8.13,38.15,22.05,25.58,19.67,48.48,20.39,48.71,20.4.27,0,.49.22.49.49,0,0,0,.01,0,.02,0,.28-.23.51-.51.51Z"/>
    <path class="st1" d="M289.28,163.75c-6.14,3.24-7-3.26-6.95-7.18.06-.04.11-.1.13-.17.44-1.8,0-10.78-5.17-14.38-4.56-3.17-10.6-5.9-16.24-5.91-4,0-7.5,2.53-9.63,5.75-2.53,3.83-2.32,8.27-2.52,12.69s-.63,9.3.25,13.73c1.18,5.9,6.69,18.29,13.38,18.29,6.07,0,16.85-9.08,20.55-14.43.84-.28,1.61-.72,2.27-1.31,1.38-1.18,4.13-3.14,3.93-7.08Z"/>
    <path class="st0" d="M262.53,187.07c-7.21,0-12.77-13.19-13.87-18.7-.78-3.91-.56-8.06-.35-12.08l.09-1.76.06-1.76c.14-3.81.27-7.75,2.55-11.19,2.47-3.74,6.22-6,10-6h0c5,0,11.05,2.2,16.52,6s5.86,13,5.37,14.91c-.02.09-.06.17-.11.24,0,2.21.31,5.88,2.18,7,1,.6,2.33.44,4-.46.15-.09.33-.09.48,0,.15.08.24.24.25.41.2,3.88-2.29,6-3.78,7.21l-.33.27c-.66.59-1.44,1.05-2.28,1.35-3.5,5.12-14.23,14.56-20.78,14.56ZM261,136.61c-3.47,0-6.91,2.07-9.2,5.52-2.12,3.21-2.24,6.84-2.38,10.68l-.06,1.77-.09,1.76c-.21,4-.43,8,.33,11.84,1.25,6.24,6.78,17.89,12.89,17.89,5.69,0,16.26-8.6,20.14-14.22.06-.09.15-.16.26-.19.77-.25,1.49-.66,2.09-1.21l.34-.28c1.32-1.1,3.26-2.73,3.42-5.62-1.33.74-2.94.77-4.29.08-2.22-1.35-2.67-5.13-2.66-8.06,0-.14.07-.27.17-.37.41-1.67-.13-10.38-5-13.77-5.3-3.69-11.12-5.81-15.95-5.82h-.01Z"/>
    <path class="st0" d="M261,170.2c-.38.02-.75-.06-1.09-.23-.23-.13-.39-.35-.44-.61-.2-1,1.92-7.68,2.57-9.7.09-.26.37-.4.63-.32.26.08.4.35.33.61,0,0,0,.01,0,.02-1.31,4-2.62,8.57-2.54,9.2.99.08,1.98-.05,2.91-.39.26-.08.53.06.61.32,0,0,0,.01,0,.02.08.27-.07.54-.34.62-.86.26-1.74.42-2.64.46Z"/>
    <path class="st0" d="M263.13,174.17c-1.23.03-2.44-.32-3.46-1-.22-.17-.27-.48-.1-.7.17-.22.48-.27.7-.1h0c.14.1,3.44,2.44,8.85-1.57.22-.17.53-.12.7.1h0c.16.22.11.53-.11.7-1.85,1.55-4.16,2.46-6.58,2.57Z"/>
    <path class="st0" d="M273.53,165.76c-2.1.11-4.09-.97-5.16-2.78-.12-.24-.02-.54.23-.65,0,0,0,0,.01,0,.24-.12.54-.02.66.22,0,0,0,0,0,0,.08.16,1.89,3.68,7.64,1.52.26-.09.54.03.64.29.1.26-.03.55-.28.65,0,0,0,0,0,0-1.19.47-2.45.73-3.73.75Z"/>
    <path class="st0" d="M255.77,161.26c-4.33,0-5.32-3.23-5.33-3.27-.07-.27.08-.54.35-.62.26-.07.53.08.61.34,0,.16,1.16,3.64,6.88,2.21.28-.07.55.1.62.38s-.1.55-.38.62c-.9.23-1.82.34-2.75.34Z"/>
    <path class="st0" d="M262.07,155.21c-.22,0-.42-.15-.48-.37,0,0-1-3.33-3.52-4.4-1.5-.62-3.3-.37-5.33.77-.24.13-.54.04-.68-.2-.13-.24-.05-.54.19-.68,2.32-1.29,4.41-1.56,6.21-.81,3,1.26,4.05,4.9,4.1,5.06.07.26-.09.54-.35.61l-.14.02Z"/>
    <path class="st0" d="M272.17,171.73c-4.62,0-8.37-3.75-8.37-8.37s3.75-8.37,8.37-8.37c4.62,0,8.37,3.75,8.37,8.37h0c0,4.62-3.75,8.36-8.37,8.37ZM272.17,155.99c-4.07,0-7.37,3.3-7.37,7.37s3.3,7.37,7.37,7.37c4.07,0,7.37-3.3,7.37-7.37h0c-.01-4.06-3.31-7.35-7.37-7.36h0Z"/>
    <path class="st0" d="M254.07,168.19c-4.62,0-8.37-3.75-8.37-8.37,0-4.62,3.75-8.37,8.37-8.37,4.62,0,8.37,3.75,8.37,8.37h0c-.01,4.62-3.75,8.36-8.37,8.37ZM254.07,152.45c-4.07,0-7.37,3.3-7.37,7.37,0,4.07,3.3,7.37,7.37,7.37,4.07,0,7.37-3.3,7.37-7.37h0c0-4.07-3.3-7.36-7.37-7.37Z"/>
    <path class="st0" d="M279.64,165.43c-.24,0-.44-.18-.49-.41-.05-.27.13-.53.4-.58l6.5-1.18c.27-.05.53.13.58.4.05.27-.13.53-.4.58l-6.5,1.18h-.09Z"/>
    <path class="st0" d="M246.4,158.35c-.16,0-.3-.08-.4-.2-.17-.22-.12-.53.1-.7l2.36-1.77c.22-.17.53-.12.7.1.16.22.12.53-.1.7l-2.36,1.77c-.09.07-.19.1-.3.1Z"/>
    <path class="st0" d="M254.15,139.1s7-4.26,9.44-.22,13.65,30.88,25.69,24.87-.09-25.77-11.77-32.06-21.51-.9-23.36,7.41Z"/>
    <path class="st0" d="M285.7,165.13c-9.24,0-17.31-15.84-21-23.1-.66-1.3-1.19-2.33-1.53-2.89-.42-.71-1.11-1.21-1.91-1.38-2.79-.68-6.8,1.75-6.84,1.77-.24.14-.54.07-.69-.17-.07-.11-.09-.24-.06-.36.88-4.07,3.64-7.48,7.44-9.19,4.86-2.24,10.77-1.73,16.65,1.44,8.14,4.39,17.15,15.82,17,24.57.08,3.59-1.98,6.88-5.25,8.38-1.18.6-2.48.92-3.81.93ZM260.19,136.64c.44,0,.87.04,1.3.14,1.06.24,1.97.91,2.52,1.84.36.59.9,1.63,1.57,3,4.07,8,13.59,26.66,23.48,21.72,2.93-1.33,4.78-4.28,4.7-7.49.13-8.4-8.59-19.43-16.48-23.68-5.6-3-11.2-3.51-15.76-1.41-3.14,1.42-5.54,4.11-6.59,7.39,1.62-.87,3.42-1.39,5.26-1.51Z"/>
    <path class="st1" d="M252.54,138.26h0c-.28,0-.5-.22-.5-.5.16-1.62,1.1-3.05,2.52-3.85,2.57-1.72,6.64,1.68,6.81,1.82.21.18.24.49.07.71-.18.21-.49.24-.71.07-1-.86-4-2.84-5.62-1.76-1.13.62-1.89,1.73-2.07,3,.02.27-.19.5-.46.52-.01,0-.03,0-.04,0Z"/>
    <path class="st1" d="M292.61,158.49h-.13c-1.06-.3-2.07-.75-3-1.35-.24-.14-.32-.44-.19-.68.14-.24.44-.32.68-.19.02,0,.03.02.04.03.85.54,1.78.96,2.76,1.22.28.04.47.29.43.57s-.29.47-.57.43l-.04-.03Z"/>
    <path class="st1" d="M285.55,153.13c-.16,0-.31-.07-.4-.2-2.1-3.07-3.95-6.3-5.55-9.66-1.85-3.77-3.89-7.44-6.11-11-2.58-4-5.32-6.15-8.14-6.37-2.09-.07-4.11.74-5.57,2.23-.18.19-.49.2-.68.02,0,0-.01-.01-.02-.02-.19-.19-.2-.5,0-.69,0,0,0,0,0,0,1.65-1.75,3.99-2.69,6.39-2.57,3.15.25,6.14,2.55,8.9,6.83,2.24,3.56,4.29,7.23,6.16,11,1.57,3.31,3.39,6.49,5.46,9.52.16.22.12.53-.1.7-.08.12-.2.2-.34.22Z"/>
    <path class="st1" d="M280.88,155.68c-.13,0-.25-.05-.34-.14-2.57-2.5-6.44-3.1-9.65-1.49-.25.13-.55.03-.68-.21-.13-.24-.04-.55.2-.68,0,0,0,0,0,0,3.6-1.76,7.91-1.1,10.81,1.66.2.19.2.51.01.71-.09.1-.23.15-.36.15Z"/>
    <path class="st0" d="M280.38,240c-12.54,0-20.3-9.52-20.38-9.61-.14-.24-.06-.56.18-.7.2-.12.45-.09.61.07.07.09,7.54,9.24,19.59,9.24.28,0,.5.22.5.5s-.22.5-.5.5Z"/>
  </g>
  <g id="freepik--Floor--inject-2">
    <path class="st0" d="M425.69,424.12H80.58c-.28,0-.5-.22-.5-.5s.22-.5.5-.5h345.11c.28,0,.5.22.5.5s-.22.5-.5.5Z"/>
  </g>
</svg>