<svg xmlns="http://www.w3.org/2000/svg" viewBox="0 0 500 500"><g id="freepik--graduation-hat-1--inject-2"><path d="M89.72,171.3l19,35.68s18.23,11.25,71-22.11,50.81-46.15,50.81-46.15L207.24,94.5Z" style="fill:#263238"></path><path d="M89.72,171.3l19,35.68s18.23,11.25,71-22.11,50.81-46.15,50.81-46.15L207.24,94.5Z" style="fill:#fff;opacity:0.1"></path><path d="M132.28,80.75c-9.49,9-95.77,78.81-116.6,95.65A2.11,2.11,0,0,0,17,180.15l112.7,2a7,7,0,0,0,5-2L262.8,52.49a1.66,1.66,0,0,0-1.55-2.8L134.66,79.48A5.16,5.16,0,0,0,132.28,80.75Z" style="fill:#263238"></path><path d="M62.57,242.77a2.06,2.06,0,0,1-2-2c-.14-21.54-.33-57.9.07-59.47.24-1,.4-1.62,36.5-31.52,17.6-14.58,35.37-29.15,35.55-29.29a2,2,0,0,1,2.59,3.16c-26.52,21.74-66.31,54.63-70.68,59-.21,4.74-.08,36.76.06,58.12a2,2,0,0,1-2,2.06Z" style="fill:#0D6EFD;stroke:#263238;stroke-linecap:round;stroke-linejoin:round"></path><rect x="56.11" y="239.78" width="12.92" height="16.21" style="fill:#0D6EFD;stroke:#263238;stroke-linecap:round;stroke-linejoin:round"></rect><path d="M56.57,256.19c-.5,7.64-3.92,58.16-6.73,75.61-3,18.78-4.37,24.7-4.38,24.76a.82.82,0,0,0,.61,1l.18,0a.82.82,0,0,0,.8-.64c0-.06,1.36-6,4.4-24.87,2.84-17.6,6.28-68.6,6.76-75.87Z" style="fill:#0D6EFD;stroke:#263238;stroke-linecap:round;stroke-linejoin:round"></path><path d="M59,256.19c-.58,10-4.82,80.91-10.67,104.34a.81.81,0,0,0,.59,1,.69.69,0,0,0,.2,0,.82.82,0,0,0,.79-.63c5.91-23.64,10.17-95,10.72-104.74Z" style="fill:#0D6EFD;stroke:#263238;stroke-linecap:round;stroke-linejoin:round"></path><path d="M61.19,256.19c-.64,8.53-6.6,86.16-11.12,105.24a.83.83,0,0,0,.61,1,.58.58,0,0,0,.19,0,.81.81,0,0,0,.79-.63c4.57-19.29,10.58-97.71,11.17-105.62Z" style="fill:#0D6EFD;stroke:#263238;stroke-linecap:round;stroke-linejoin:round"></path><path d="M62,256.19c-.47,9.73-4.48,90.68-7.54,105.93a.82.82,0,0,0,.64,1l.16,0a.82.82,0,0,0,.8-.66c3.13-15.6,7.1-96.37,7.58-106.26Z" style="fill:#0D6EFD;stroke:#263238;stroke-linecap:round;stroke-linejoin:round"></path><path d="M66.37,256.19H64.73c-.28,10-2.2,81.84,0,107.05a.82.82,0,0,0,.81.76h.07a.83.83,0,0,0,.75-.89C64.17,337.94,66.09,266,66.37,256.19Z" style="fill:#0D6EFD;stroke:#263238;stroke-linecap:round;stroke-linejoin:round"></path><path d="M64.59,256.19H63c-.46,10.23-4.43,100.09-4.22,105.91a.81.81,0,0,0,.81.8h0a.83.83,0,0,0,.79-.86C60.17,356.34,64.18,265.43,64.59,256.19Z" style="fill:#0D6EFD;stroke:#263238;stroke-linecap:round;stroke-linejoin:round"></path><path d="M66,256.19c.13,11.18,1.27,104.19,1.27,104.91a.82.82,0,0,0,.82.82h0a.82.82,0,0,0,.82-.82c0-.62-1.13-93-1.28-104.91Z" style="fill:#0D6EFD;stroke:#263238;stroke-linecap:round;stroke-linejoin:round"></path><path d="M57.64,256.19c-.52,9.82-4.45,80.18-9.78,98.12a.82.82,0,0,0,.55,1,.67.67,0,0,0,.24,0,.82.82,0,0,0,.78-.59c5.46-18.41,9.33-88.71,9.85-98.59Z" style="fill:#0D6EFD;stroke:#263238;stroke-linecap:round;stroke-linejoin:round"></path><path d="M140.3,116.9c1.06,1.76-1.16,5-5,7.34s-7.74,2.73-8.81,1,1.16-5,5-7.35S139.23,115.13,140.3,116.9Z" style="fill:#0D6EFD;stroke:#263238;stroke-linecap:round;stroke-linejoin:round"></path></g></svg>
